<svg version="1.1" id="Layer_1" xmlns="http://www.w3.org/2000/svg" xmlns:xlink="http://www.w3.org/1999/xlink" x="0px" y="0px"
	 width="100%" viewBox="0 0 1200 1200" enable-background="new 0 0 1200 1200" xml:space="preserve">
<path fill="#003638" opacity="1.000000" stroke="none" 
	d="
M584.000000,1201.000000 
	C390.833344,1201.000000 198.166672,1200.987427 5.500052,1201.093750 
	C1.750736,1201.095825 0.906084,1200.249023 0.907021,1196.500000 
	C1.006199,799.500000 1.006199,402.500000 0.907021,5.500023 
	C0.906084,1.750933 1.750933,0.906086 5.500023,0.907022 
	C402.500000,1.006185 799.500000,1.006186 1196.500000,0.907022 
	C1200.249023,0.906086 1201.093994,1.750932 1201.093140,5.500023 
	C1200.993896,402.500000 1200.993896,799.500000 1201.093140,1196.500000 
	C1201.093994,1200.249023 1200.249268,1201.095581 1196.500000,1201.093628 
	C992.500000,1200.988037 788.500000,1201.000000 584.000000,1201.000000 
z"/>
<path fill="#EFA082" opacity="1.000000" stroke="none" 
	d="
M722.251892,795.834045 
	C706.598572,788.755737 691.334473,781.738831 675.882080,775.164368 
	C669.843750,772.595276 667.000366,768.865234 667.409302,762.195312 
	C667.709839,757.293518 669.788086,750.889343 666.694885,747.814392 
	C663.843750,744.980164 657.488342,747.064636 652.681641,747.037292 
	C637.350464,746.950012 622.017212,747.109314 606.687683,746.929077 
	C603.013062,746.885986 601.411316,747.515381 601.533997,751.720886 
	C601.659424,756.018372 602.036377,758.460449 606.999390,760.420227 
	C622.816956,766.666443 631.689758,783.829529 628.406616,799.691895 
	C624.900085,816.633667 610.695679,828.686890 593.886047,828.984619 
	C577.104675,829.281799 562.418884,817.586853 558.499695,800.804932 
	C554.483765,783.608704 564.254578,765.966553 581.316711,759.606506 
	C584.345459,758.477478 586.776672,749.998413 584.733276,747.613708 
	C583.979858,746.734375 582.887695,747.019409 581.926270,747.018677 
	C562.095032,747.003235 542.263611,747.055359 522.432922,746.952576 
	C519.654419,746.938171 518.890442,748.042908 519.177734,750.499390 
	C519.235474,750.992493 519.111023,751.510986 519.194519,751.996399 
	C521.349487,764.518433 516.912781,774.040161 506.948303,781.870117 
	C500.702393,786.778015 495.599426,793.120972 489.803284,798.630371 
	C487.483551,800.835388 486.765228,802.460205 488.333008,805.773376 
	C497.101562,824.304199 488.731384,845.466858 469.775879,853.537598 
	C451.602203,861.275391 430.294128,852.378479 423.055267,834.029968 
	C415.583832,815.091919 424.983765,793.917358 444.068024,787.086548 
	C453.430328,783.735474 462.791962,784.234985 471.692139,788.702332 
	C474.321320,790.021912 475.700653,789.586548 477.613037,787.631104 
	C485.069275,780.007019 492.709351,772.562805 500.270569,765.041199 
	C502.338562,762.984192 504.108368,750.502197 502.741974,748.003235 
	C502.008942,746.662598 500.744965,747.024475 499.648346,747.023499 
	C476.484161,747.002319 453.319366,747.093811 430.156433,746.923218 
	C426.204590,746.894165 426.999512,749.150146 426.998047,751.391907 
	C426.988007,766.688538 418.228577,779.421997 403.905579,784.985596 
	C390.255035,790.287964 374.647614,786.564514 364.717133,775.445190 
	C358.713867,768.723267 355.460510,760.752502 355.923187,751.708435 
	C356.139221,747.485168 354.565521,746.907349 350.905396,746.931702 
	C328.763947,747.078979 306.621033,747.005005 284.409943,747.005005 
	C284.143860,744.680054 285.804291,743.510681 286.764282,742.095032 
	C297.417267,726.385681 308.048248,710.659485 318.925293,695.105713 
	C321.019257,692.111450 320.806061,690.136780 318.824371,687.284485 
	C307.995270,671.697998 297.355927,655.979431 286.686340,640.282532 
	C285.796783,638.973816 284.437927,637.869995 284.372711,636.002747 
	C286.313843,635.040894 288.337921,635.515503 290.278961,635.514282 
	C340.940155,635.482788 391.601562,635.430359 442.262299,635.589172 
	C446.838165,635.603516 448.194885,634.397705 448.026001,629.785156 
	C447.660492,619.799561 447.810059,609.789734 447.972412,599.793457 
	C448.023376,596.654785 447.233734,595.583618 443.851685,595.374146 
	C438.322815,595.031738 435.305206,596.254089 432.833221,602.078979 
	C426.163086,617.796448 409.168915,625.773682 392.920105,622.054199 
	C376.494141,618.294006 365.110321,603.944641 365.052765,586.927124 
	C364.998199,570.790039 376.692261,556.087036 392.444153,552.487854 
	C410.213715,548.427612 427.352509,557.576782 434.045410,574.571411 
	C434.647980,576.101440 434.221985,578.707031 436.668365,578.861084 
	C440.145203,579.080017 443.674774,579.057922 447.131073,578.677612 
	C448.319031,578.546875 447.895447,576.663574 447.896667,575.548096 
	C447.917816,555.883545 447.855499,536.218628 447.973877,516.554810 
	C447.991394,513.640686 447.029785,512.841431 444.256622,512.951965 
	C439.431488,513.144348 434.585419,512.837463 429.762848,513.059570 
	C426.115509,513.227539 423.396454,511.884125 420.919464,509.353088 
	C412.410889,500.658844 403.744720,492.117920 395.298157,483.364594 
	C393.151581,481.140015 391.533539,480.600464 388.508881,482.027008 
	C369.851685,490.826416 348.488831,482.620941 340.617493,463.874298 
	C332.738647,445.109772 341.745361,423.911469 360.725433,416.548096 
	C374.020660,411.390198 389.089264,414.892578 399.240753,425.500244 
	C409.234833,435.943420 412.006134,451.670135 405.640015,464.889862 
	C404.073456,468.143036 404.576141,469.744629 406.942810,472.009888 
	C413.201019,478.000061 419.535217,483.967621 425.212128,490.489929 
	C429.539001,495.461212 434.230927,497.519714 440.811890,496.953979 
	C447.567810,496.373108 447.606476,496.822815 447.998657,490.210114 
	C449.017670,473.028412 464.800018,457.173798 482.233978,456.057129 
	C487.879517,455.695526 493.563538,455.753357 499.224030,455.881134 
	C502.061127,455.945190 503.263733,454.984039 502.876495,452.161499 
	C502.854034,451.997955 502.850586,451.824707 502.877686,451.662506 
	C504.282837,443.251587 501.567169,436.807892 494.808838,431.311188 
	C488.634094,426.289124 483.263458,420.251984 477.738770,414.470703 
	C475.676636,412.312805 474.152191,412.134888 471.395996,413.461487 
	C453.527435,422.062012 431.863251,414.096222 423.796417,396.193634 
	C415.531006,377.850311 423.403290,357.004852 441.691284,348.808868 
	C455.065094,342.815277 470.696625,345.785767 481.337006,356.342834 
	C491.692200,366.616974 494.803680,382.535400 488.396667,395.989044 
	C486.668488,399.617889 487.675903,401.254730 490.005402,403.535461 
	C498.340485,411.695892 506.457306,420.080688 514.852539,428.177582 
	C517.974182,431.188293 519.462524,434.452454 519.235718,438.782837 
	C519.000732,443.270020 519.274170,447.781647 519.148438,452.277618 
	C519.080017,454.726593 519.709045,455.882355 522.465027,455.870056 
	C542.295837,455.781494 562.127380,455.792053 581.958313,455.862793 
	C584.362183,455.871368 585.302734,455.041382 585.089844,452.675171 
	C584.970886,451.352722 584.878967,449.977264 585.105896,448.683777 
	C585.813721,444.649048 583.991760,443.096283 580.231750,441.708527 
	C564.411316,435.869690 555.237671,419.140259 558.141235,402.325134 
	C560.995361,385.796448 576.107483,373.124573 593.099548,373.011841 
	C609.758301,372.901306 624.783386,384.935822 628.040527,400.998199 
	C631.582153,418.462952 623.234314,434.682159 607.300781,441.466125 
	C605.412170,442.270233 602.394348,442.041901 601.976257,444.425079 
	C601.410034,447.652466 601.651367,451.063080 601.880188,454.372040 
	C602.008179,456.223175 603.839111,455.805756 605.089233,455.807190 
	C624.753784,455.830017 644.418579,455.776337 664.082642,455.873901 
	C667.037231,455.888580 667.808899,454.692078 667.700500,452.004150 
	C667.512451,447.343719 667.627747,442.671509 667.466431,438.009430 
	C667.289429,432.891937 669.449829,429.673737 674.255493,427.603638 
	C689.375977,421.090271 704.348145,414.233063 719.445374,407.664551 
	C722.158936,406.483917 722.973511,405.207397 722.628540,402.106354 
	C720.588257,383.769928 734.799744,366.284912 753.215271,364.103699 
	C772.359314,361.836182 790.117676,374.804565 792.995422,393.153961 
	C795.525452,409.285248 788.190125,423.898163 774.022827,430.950226 
	C759.422119,438.218018 743.792725,435.658020 732.398193,423.827087 
	C730.323547,421.672974 728.878479,421.308319 726.166870,422.565033 
	C713.643799,428.368927 701.073486,434.085419 688.362610,439.460754 
	C684.802124,440.966492 683.860474,442.872742 683.979614,446.524506 
	C684.282898,455.821320 684.106628,455.958618 693.581238,455.788849 
	C702.502808,455.628967 711.327393,455.917877 719.192261,460.747009 
	C730.731812,467.832428 737.499695,478.054413 738.182922,491.755066 
	C738.384277,495.793091 739.755371,496.697144 743.764099,497.016083 
	C751.608154,497.640198 757.932922,495.630829 763.585876,490.111786 
	C767.497253,486.293060 772.071533,483.129913 776.489990,479.863678 
	C778.814148,478.145599 779.312073,476.538177 778.517395,473.580688 
	C774.554993,458.833099 778.326050,446.144684 790.051208,436.300690 
	C801.165833,426.969269 813.954407,425.358063 827.015076,431.133484 
	C840.300964,437.008545 847.542969,447.838348 848.127686,462.483948 
	C848.697449,476.753754 842.449402,487.695557 830.085266,494.658875 
	C817.320190,501.847961 804.498962,501.018829 792.394226,492.840851 
	C789.839294,491.114746 788.413940,491.014435 786.070007,492.986267 
	C779.315674,498.668182 772.241211,503.968933 765.469604,509.631256 
	C762.337524,512.250305 759.046204,513.460876 754.965942,513.229309 
	C750.647095,512.984192 746.300476,513.274414 741.971680,513.142395 
	C739.452087,513.065613 738.374817,513.902527 738.383484,516.546326 
	C738.448486,536.377258 738.437683,556.208496 738.401245,576.039612 
	C738.397522,578.074463 738.965454,579.210205 741.221497,579.006836 
	C742.378357,578.902527 743.582458,578.824768 744.714111,579.024414 
	C748.999756,579.780396 750.747009,578.054993 752.357117,573.862000 
	C759.519226,555.210815 781.442139,546.398926 799.526184,554.398743 
	C818.181885,562.651489 826.189697,584.700256 817.219910,603.116882 
	C808.575684,620.864990 786.040894,628.237671 768.593933,618.795288 
	C760.728638,614.538574 754.723328,608.207397 752.049072,599.563110 
	C749.934143,592.726868 744.766968,595.845093 740.957397,595.739197 
	C736.583069,595.617554 738.572144,599.718323 738.515442,601.896301 
	C738.276794,611.055786 738.773315,620.244690 738.274902,629.383240 
	C737.983093,634.734375 739.925476,635.606506 744.746033,635.590881 
	C795.406799,635.426331 846.068176,635.483337 896.729431,635.514587 
	C898.500061,635.515686 900.359985,635.037476 902.098267,635.988647 
	C902.297180,637.753479 900.955322,638.711548 900.163025,639.877136 
	C889.586670,655.436218 879.085693,671.049255 868.271057,686.441772 
	C865.811523,689.942383 865.555664,692.252197 868.143372,695.911987 
	C879.099304,711.406982 889.660706,727.181030 900.357910,742.858704 
	C901.092224,743.934937 901.757935,745.058105 902.488525,746.211487 
	C901.110352,747.600586 899.543518,746.966553 898.178894,746.970337 
	C879.681091,747.022034 861.182861,747.036987 842.685120,746.966675 
	C840.233704,746.957397 838.351379,747.536133 836.397034,749.183899 
	C822.092163,761.244812 803.822693,761.231995 789.414246,749.158691 
	C787.455688,747.517578 785.555603,746.962769 783.104919,746.967224 
	C751.608398,747.024597 720.111328,747.079895 688.615662,746.909485 
	C684.752930,746.888611 684.321228,748.162415 683.891174,751.652527 
	C683.032898,758.618652 685.748901,761.838562 692.158447,764.305298 
	C703.626770,768.718994 714.711914,774.141174 725.887146,779.293884 
	C728.409729,780.457153 729.970825,780.678833 732.222961,778.335083 
	C743.243713,766.866150 759.290222,763.841187 772.965454,770.255615 
	C786.286133,776.503723 795.075195,791.538574 793.620911,805.589050 
	C791.967468,821.563049 781.288208,833.790955 765.647766,837.618835 
	C743.450256,843.051453 720.736755,823.800049 722.392334,800.986755 
	C722.510559,799.356689 723.271790,797.734558 722.251892,795.834045 
z"/>
<path fill="#033739" opacity="1.000000" stroke="none" 
	d="
M464.310059,535.999756 
	C464.309143,522.337708 464.731628,509.158386 464.194214,496.018311 
	C463.597290,481.424072 475.389191,471.847870 488.584778,471.938873 
	C558.056824,472.418152 627.533997,472.164612 697.009399,472.166412 
	C713.467712,472.166840 722.035889,480.641907 722.041382,497.005859 
	C722.056274,541.323425 721.962524,585.641357 722.165405,629.958008 
	C722.187195,634.719116 720.727356,635.864075 716.322266,635.589600 
	C710.679504,635.238037 704.975708,635.192322 699.340576,635.600464 
	C694.621521,635.942200 693.140137,634.636475 693.174133,629.656311 
	C693.379700,599.503418 693.260742,569.347839 693.141785,539.193481 
	C693.087219,525.352356 685.582397,515.556458 672.883484,512.591370 
	C670.486938,512.031799 667.936218,511.953522 665.456726,511.954102 
	C617.474609,511.965149 569.492493,512.007324 521.510376,512.074646 
	C503.458771,512.099915 492.863770,522.983215 492.917816,541.188843 
	C493.006317,571.010559 492.940277,600.833191 493.162781,630.653748 
	C493.192780,634.676880 491.993378,635.761719 488.141235,635.583252 
	C481.823700,635.290527 475.468475,635.246216 469.156708,635.595398 
	C465.026245,635.823914 464.217743,634.250732 464.233978,630.466003 
	C464.368286,599.144348 464.310059,567.821960 464.310059,535.999756 
z"/>
<path fill="#043839" opacity="1.000000" stroke="none" 
	d="
M676.931274,582.000000 
	C676.931274,598.077271 676.931274,613.654480 676.931274,630.822388 
	C668.998474,620.248657 662.014099,610.883362 654.966125,601.566223 
	C650.855774,596.132507 646.780090,590.663391 642.449280,585.407654 
	C633.032776,573.980164 617.536865,573.695190 607.766357,584.907715 
	C603.295227,590.038696 599.300354,595.600891 595.308228,601.125610 
	C593.583435,603.512512 592.616577,603.314453 591.012085,601.083862 
	C587.426392,596.099060 583.813538,591.115112 579.902283,586.386780 
	C569.205505,573.455322 553.157043,573.639160 542.919678,586.934204 
	C532.870850,599.984436 523.131165,613.272705 513.251648,626.453308 
	C512.458069,627.512085 511.631409,628.546082 510.790771,629.629395 
	C508.945129,628.554321 509.736755,626.878784 509.731018,625.556580 
	C509.609070,597.413574 509.533234,569.270264 509.494995,541.127014 
	C509.482239,531.742126 512.271118,528.765137 521.530090,528.719727 
	C569.321045,528.485352 617.112305,528.311523 664.903625,528.187561 
	C673.401123,528.165527 676.801941,531.823792 676.833008,540.532532 
	C676.881775,554.188293 676.900085,567.844177 676.931274,582.000000 
z"/>
<path fill="#08393A" opacity="1.000000" stroke="none" 
	d="
M536.051880,727.819214 
	C535.829590,730.926086 536.713318,734.220764 532.081360,734.070312 
	C528.738342,733.961792 527.408813,732.802307 527.344604,729.309998 
	C527.201050,721.502136 526.661194,713.700623 526.224304,705.899841 
	C526.136963,704.340637 525.789185,702.796082 525.390137,700.077209 
	C522.965576,704.116028 522.357971,707.468811 521.617615,710.756592 
	C520.159058,717.233948 518.826050,723.740356 517.298401,730.200989 
	C516.801514,732.302307 516.058472,734.145203 513.055420,734.128357 
	C510.041077,734.111328 509.472412,732.285706 508.940765,730.150269 
	C507.015320,722.416443 505.100861,714.679443 503.252960,706.926819 
	C502.831055,705.156616 502.579407,703.362915 501.040619,701.332031 
	C499.316315,705.287598 499.588348,709.071777 499.250214,712.701843 
	C498.727753,718.310303 498.417847,723.939758 498.083954,729.564209 
	C497.885468,732.907410 497.153381,735.355530 492.866394,735.074463 
	C488.411804,734.782410 489.531219,731.796448 489.659332,729.301575 
	C490.859863,705.920654 492.103241,682.541809 493.350494,659.163269 
	C493.403442,658.170410 493.570618,657.177307 493.761169,656.199219 
	C494.218811,653.849976 493.761688,650.502075 497.170654,650.435364 
	C500.322418,650.373596 500.723724,653.628601 501.265167,655.945679 
	C504.176117,668.403809 506.875916,680.911194 509.769379,693.373535 
	C510.259583,695.484863 510.067810,698.882812 512.785950,698.946533 
	C515.498657,699.010193 515.704956,695.622620 516.218201,693.493958 
	C519.062500,681.697693 521.713013,669.854675 524.440002,658.030029 
	C524.776123,656.572510 525.164917,655.126892 525.542969,653.679382 
	C526.016724,651.865479 527.002441,650.805298 529.077515,650.929321 
	C531.291504,651.061646 531.754333,652.530762 532.000854,654.285339 
	C533.109863,662.177734 533.570740,670.106323 533.830750,678.076111 
	C534.366760,694.510193 535.236023,710.933350 536.051880,727.819214 
z"/>
<path fill="#093A3B" opacity="1.000000" stroke="none" 
	d="
M472.001129,679.977295 
	C471.844330,693.249146 473.226807,706.020569 472.224182,718.798462 
	C471.679688,725.736938 468.801361,731.382629 462.055420,734.062683 
	C456.474121,736.279907 451.213989,734.913940 446.775452,730.980530 
	C442.316284,727.028870 441.302643,721.394104 441.251862,716.003418 
	C441.098511,699.737732 441.447449,683.464905 441.792938,667.198975 
	C441.851807,664.427490 442.865936,661.677490 443.427246,658.915283 
	C444.777435,652.271118 451.976562,648.823303 457.899323,649.302368 
	C464.987762,649.875671 470.110199,655.088257 470.987976,662.098633 
	C471.711670,667.877991 472.538116,673.636414 472.001129,679.977295 
z"/>
<path fill="#093A3B" opacity="1.000000" stroke="none" 
	d="
M392.230286,677.989380 
	C392.312317,670.520203 392.337585,663.549011 392.348511,656.577881 
	C392.355560,652.082886 394.438568,650.052979 399.082916,649.929565 
	C413.019135,649.559204 420.642212,656.117371 423.226349,672.099976 
	C425.177124,684.165405 424.515717,696.034546 416.814606,706.401917 
	C414.976257,708.876770 415.470337,711.450745 416.022949,714.041565 
	C417.165405,719.397888 418.403534,724.734619 419.671234,730.063049 
	C420.198792,732.280457 420.908142,734.663330 417.562225,734.893494 
	C414.947632,735.073364 411.804382,736.061890 411.098724,731.606995 
	C410.375946,727.044250 410.124634,722.363159 408.444733,717.972229 
	C407.729401,716.102539 407.303375,713.916443 404.626007,714.148071 
	C401.985687,714.376526 401.682892,716.430176 401.562988,718.519165 
	C401.324890,722.667358 400.891113,726.817017 400.916199,730.963806 
	C400.940308,734.949646 398.271149,734.385376 395.825165,734.505066 
	C393.188904,734.634094 392.023926,733.798218 392.051636,730.793701 
	C392.212433,713.359375 392.152649,695.923096 392.230286,677.989380 
z"/>
<path fill="#08393A" opacity="1.000000" stroke="none" 
	d="
M642.994324,635.524902 
	C625.436035,635.524841 608.376404,635.524841 590.251709,635.524841 
	C598.410339,624.571533 605.903015,614.512634 613.395325,604.453491 
	C615.476929,601.658691 617.444641,598.769653 619.666138,596.090881 
	C622.606873,592.544861 626.673462,592.068115 629.465820,595.612244 
	C639.568970,608.435486 649.335266,621.524109 659.999878,635.524902 
	C653.665955,635.524902 648.579468,635.524902 642.994324,635.524902 
z"/>
<path fill="#08393A" opacity="1.000000" stroke="none" 
	d="
M663.657104,722.680542 
	C662.339172,717.791748 659.618286,715.585999 654.763367,716.131531 
	C649.994446,716.667480 647.124390,718.976196 646.414856,723.846741 
	C646.104126,725.979675 645.634338,728.101135 645.071777,730.183228 
	C644.147766,733.603149 640.539124,735.238708 637.393250,733.914246 
	C635.797180,733.242249 636.269958,732.083252 636.435181,731.007019 
	C639.486694,711.134949 642.567749,691.267334 645.628296,671.396606 
	C646.514282,665.643799 647.300964,659.886169 648.797058,654.231689 
	C649.546753,651.398193 650.684265,649.818909 653.837830,649.950073 
	C657.049072,650.083618 660.344482,649.661255 661.223633,654.015869 
	C662.705017,661.353394 664.544861,668.629028 665.749146,676.009827 
	C668.585327,693.391174 671.169739,710.813965 673.781921,728.231140 
	C674.618896,733.811340 673.910706,734.408447 668.604004,734.204773 
	C666.270630,734.115234 665.396912,733.120728 665.131226,730.945007 
	C664.808594,728.303406 664.227905,725.693298 663.657104,722.680542 
z"/>
<path fill="#06393A" opacity="1.000000" stroke="none" 
	d="
M562.961182,728.730225 
	C563.034729,732.495239 562.049927,734.366089 558.116333,734.246826 
	C555.057739,734.154175 554.517822,732.904114 554.535706,730.334717 
	C554.703186,706.250000 554.808105,682.164917 554.939087,658.079895 
	C554.982544,650.080811 560.863403,646.511047 569.752991,649.606750 
	C577.136658,652.177917 582.093506,657.070374 584.472351,665.040710 
	C588.395142,678.184204 587.258606,690.614014 581.352783,702.776489 
	C579.333130,706.935547 576.232788,710.229980 571.979492,712.035278 
	C563.056946,715.822510 563.008240,715.715454 562.898621,725.276001 
	C562.887207,726.273010 562.944641,727.270752 562.961182,728.730225 
z"/>
<path fill="#06393A" opacity="1.000000" stroke="none" 
	d="
M357.812469,712.786255 
	C352.323090,714.085510 350.653595,717.583679 350.906158,722.480286 
	C351.025970,724.802734 350.831787,727.140869 350.939423,729.464539 
	C351.109344,733.134338 349.426239,734.285828 345.838837,734.229492 
	C341.552490,734.162231 342.682251,731.386902 342.693817,729.053284 
	C342.807495,706.110107 342.986084,683.166992 343.026245,660.223633 
	C343.043945,650.108704 348.827759,646.075928 358.558319,649.897034 
	C365.717438,652.708252 370.348206,657.658997 372.599976,665.401917 
	C376.378845,678.395935 375.245270,690.711060 369.373383,702.690491 
	C367.036713,707.457642 363.467194,711.092957 357.812469,712.786255 
z"/>
<path fill="#07393A" opacity="1.000000" stroke="none" 
	d="
M565.705872,595.216431 
	C571.005310,602.059814 575.972778,608.713257 581.121765,615.223206 
	C582.480713,616.941345 582.829102,618.269836 581.268860,619.894409 
	C580.927856,620.249573 580.615295,620.663269 580.400452,621.103943 
	C574.428345,633.353149 564.848267,637.671265 551.368103,635.719177 
	C543.775085,634.619568 535.892212,635.520996 527.058533,635.520996 
	C531.499512,629.525391 535.204651,624.478149 538.957764,619.466858 
	C544.538635,612.015259 550.159729,604.593750 555.750854,597.149780 
	C558.372253,593.659729 561.373535,591.969604 565.705872,595.216431 
z"/>
<path fill="#06393A" opacity="1.000000" stroke="none" 
	d="
M779.618408,683.957520 
	C779.614929,685.939148 779.593018,687.435303 779.697388,688.922607 
	C780.174377,695.721985 780.252563,696.078796 786.958130,695.990601 
	C790.709717,695.941284 791.286987,697.714661 790.851074,700.515442 
	C790.480103,702.899414 791.994507,706.427917 786.915039,706.146912 
	C780.303406,705.781250 779.735291,706.672424 779.458008,713.454773 
	C779.383606,715.274475 779.325378,717.095886 779.311340,718.916931 
	C779.288025,721.934326 780.398621,723.627563 783.826050,723.139465 
	C785.438965,722.909729 787.133301,723.278625 788.792114,723.337830 
	C792.361389,723.465149 793.992310,724.837891 793.940369,728.859131 
	C793.884949,733.149292 791.564392,733.946289 788.305420,733.945496 
	C784.175415,733.944580 780.126953,733.895142 775.994568,734.799744 
	C771.812561,735.715149 770.168640,732.914185 769.856873,728.953186 
	C769.139465,719.838623 769.621399,710.721924 769.640015,701.609253 
	C769.669189,687.347046 769.769958,673.081116 770.157043,658.825317 
	C770.328979,652.493103 774.390503,649.829895 780.897217,650.638428 
	C783.833374,651.003418 786.849670,650.782898 789.827942,650.731934 
	C792.762573,650.681763 794.018372,652.073181 793.996155,654.965820 
	C793.976135,657.573608 794.103882,660.133789 790.459656,660.282837 
	C790.139465,660.295959 789.832581,660.524780 789.508362,660.566650 
	C779.306396,661.884949 779.320129,661.883057 779.536804,671.994629 
	C779.618774,675.818176 779.619995,679.643494 779.618408,683.957520 
z"/>
<path fill="#033739" opacity="1.000000" stroke="none" 
	d="
M584.427002,425.853638 
	C575.923157,419.936768 572.610779,412.474426 574.624268,404.399323 
	C576.579651,396.556824 582.624756,391.011261 590.530701,389.807465 
	C598.263184,388.630066 605.610901,392.064362 609.701660,398.767914 
	C613.666809,405.265594 613.426270,414.011230 608.870544,419.945770 
	C603.849670,426.486084 597.221375,429.097107 589.056274,427.328156 
	C587.602295,427.013153 586.201111,426.454773 584.427002,425.853638 
z"/>
<path fill="#033739" opacity="1.000000" stroke="none" 
	d="
M751.785522,784.534180 
	C767.309998,779.756897 780.387939,793.491394 776.504761,807.977722 
	C774.185608,816.629333 765.982178,822.296692 756.907654,821.824585 
	C748.139343,821.368469 740.738770,814.873840 739.181335,806.268066 
	C737.495789,796.954773 742.001587,789.027039 751.785522,784.534180 
z"/>
<path fill="#033739" opacity="1.000000" stroke="none" 
	d="
M363.023376,433.847168 
	C373.411621,428.547089 383.082428,430.532990 389.074554,438.928436 
	C394.667603,446.764587 393.606720,457.254333 386.547668,463.914246 
	C378.908325,471.121643 367.025787,470.826172 359.618591,463.244659 
	C352.366180,455.821472 352.399658,444.100769 359.719727,436.699707 
	C360.653809,435.755310 361.709381,434.931000 363.023376,433.847168 
z"/>
<path fill="#033739" opacity="1.000000" stroke="none" 
	d="
M831.896729,465.659180 
	C830.147461,474.974762 825.143005,480.830719 816.057556,482.521515 
	C808.308594,483.963593 801.799500,481.375549 797.245972,475.001648 
	C792.597961,468.495483 792.088318,461.284424 796.082153,454.303741 
	C800.050598,447.367401 806.354797,443.908661 814.415283,444.637329 
	C822.698486,445.386017 828.104797,450.152283 830.904663,457.868347 
	C831.755432,460.213043 832.147461,462.706818 831.896729,465.659180 
z"/>
<path fill="#033739" opacity="1.000000" stroke="none" 
	d="
M788.391602,568.227173 
	C798.965393,571.011658 805.167847,578.996643 804.498718,588.536377 
	C803.840027,597.927246 796.659180,605.249268 787.196899,606.178345 
	C776.154968,607.262451 766.994507,599.493774 766.141724,588.322083 
	C765.365601,578.154541 773.548157,568.829407 783.996887,568.030823 
	C785.315979,567.930054 786.655151,568.091125 788.391602,568.227173 
z"/>
<path fill="#033739" opacity="1.000000" stroke="none" 
	d="
M440.388031,809.552795 
	C447.908844,801.011292 457.116943,798.920288 465.413422,803.623291 
	C473.327545,808.109558 477.297028,817.808838 474.417938,826.299255 
	C471.772430,834.100891 466.204803,838.656494 457.973175,839.479797 
	C450.624084,840.214783 444.498383,837.542297 440.400055,831.362183 
	C435.763672,824.370789 435.664917,817.070496 440.388031,809.552795 
z"/>
<path fill="#033739" opacity="1.000000" stroke="none" 
	d="
M755.369934,418.101562 
	C743.768860,415.573120 737.348999,406.571503 739.085632,395.833496 
	C740.628235,386.295471 750.577148,378.870483 760.209045,380.068726 
	C770.805847,381.387054 778.169556,390.835449 777.063843,401.695404 
	C776.032898,411.821198 767.169678,418.680603 755.369934,418.101562 
z"/>
<path fill="#033739" opacity="1.000000" stroke="none" 
	d="
M585.865906,775.550415 
	C598.847290,769.996582 613.734009,779.975098 612.442383,795.189636 
	C611.692871,804.018127 605.061523,810.756470 596.570435,812.036377 
	C587.640503,813.382446 579.552612,809.187988 575.993042,801.364746 
	C572.243652,793.124329 574.273132,784.250854 581.338928,778.404236 
	C582.602600,777.358582 584.120605,776.620239 585.865906,775.550415 
z"/>
<path fill="#033739" opacity="1.000000" stroke="none" 
	d="
M381.913879,589.648193 
	C381.590698,579.822510 385.327209,573.068054 392.909149,569.787415 
	C400.280670,566.597900 407.221466,567.440735 413.332245,572.822144 
	C419.450592,578.210266 421.533630,586.219604 418.947845,593.660583 
	C416.161835,601.677917 408.149811,606.864563 399.495605,606.253052 
	C390.142334,605.592163 384.011017,599.939819 381.913879,589.648193 
z"/>
<path fill="#033739" opacity="1.000000" stroke="none" 
	d="
M459.504364,400.016357 
	C447.560669,401.058441 438.627838,394.465210 437.131012,383.869507 
	C435.710785,373.815765 442.536835,364.688721 453.049774,362.584686 
	C462.281677,360.737030 471.825989,366.776184 474.555145,376.192200 
	C477.208435,385.346497 472.417023,395.471649 463.772034,398.881653 
	C462.542389,399.366669 461.218628,399.613159 459.504364,400.016357 
z"/>
<path fill="#093A3B" opacity="1.000000" stroke="none" 
	d="
M838.961182,677.015503 
	C836.794556,683.347900 834.870667,689.342957 832.764587,695.273193 
	C830.830994,700.717712 830.885498,706.297729 831.015381,711.955017 
	C831.151917,717.908630 830.943787,723.870728 830.854980,729.828613 
	C830.815552,732.468994 830.065857,734.285767 826.780212,734.053223 
	C823.702454,733.835449 822.859985,732.214172 822.918701,729.481750 
	C823.050598,723.340271 822.914307,717.188049 823.215332,711.056274 
	C823.784912,699.455688 819.620483,688.874573 816.445618,678.075073 
	C814.152649,670.275391 811.662048,662.532471 809.477234,654.703491 
	C809.082703,653.289612 807.441406,650.753967 810.279053,650.196045 
	C812.801453,649.700012 816.039368,648.720825 817.313904,652.704346 
	C819.485107,659.490051 821.651917,666.277893 824.549683,672.810486 
	C825.232117,674.349121 825.520020,676.310425 827.572937,676.146973 
	C829.420715,675.999878 830.093323,674.153381 830.677612,672.591919 
	C832.999146,666.387939 835.291443,660.172913 837.558350,653.948792 
	C838.077271,652.523987 838.485718,650.949951 840.005737,650.367371 
	C841.729980,649.706421 843.675049,649.522827 845.268921,650.604431 
	C846.852234,651.678955 846.017517,653.323242 845.610229,654.717041 
	C843.471741,662.034851 841.290710,669.340210 838.961182,677.015503 
z"/>
<path fill="#043839" opacity="1.000000" stroke="none" 
	d="
M624.685547,649.991577 
	C629.054260,649.414551 630.027283,651.617859 630.074341,654.965820 
	C630.122925,658.421143 628.020935,659.004883 625.224060,659.188416 
	C619.461853,659.566467 618.572205,660.696777 618.538147,666.606934 
	C618.440613,683.521667 618.284424,700.435974 618.166687,717.350647 
	C618.136841,721.639648 617.973694,725.940125 618.220337,730.215210 
	C618.461609,734.397400 615.980225,733.987061 613.111206,734.100708 
	C609.393616,734.248047 608.485840,732.360596 608.508728,729.258850 
	C608.583618,719.128052 608.663635,708.997314 608.714783,698.866455 
	C608.770935,687.743896 608.707275,676.619751 608.881775,665.499268 
	C608.949646,661.175110 607.309814,658.682922 602.857788,658.920654 
	C599.357727,659.107483 598.071350,657.621765 597.996399,654.290344 
	C597.918030,650.805054 599.929016,650.111145 602.777344,650.105042 
	C609.925354,650.089661 617.073181,650.029297 624.685547,649.991577 
z"/>
<path fill="#0A3A3B" opacity="1.000000" stroke="none" 
	d="
M730.176514,712.001587 
	C730.184326,692.912537 730.259460,674.323792 730.155701,655.736023 
	C730.138672,652.676880 730.210632,650.738708 734.174805,650.696106 
	C738.037354,650.654541 739.662170,651.904541 739.602722,655.773132 
	C739.406555,668.561096 739.281311,681.350586 739.215576,694.139954 
	C739.172241,702.574341 739.302917,711.009583 739.308167,719.444397 
	C739.311523,724.857239 743.127869,724.560791 746.626038,724.120544 
	C751.007690,723.569153 753.265137,724.759460 753.145996,729.589905 
	C753.062988,732.954712 751.988464,734.372131 748.442322,734.080078 
	C744.641785,733.767090 740.789124,733.768372 736.978394,733.979126 
	C732.176819,734.244751 730.339844,731.856323 730.312500,727.428528 
	C730.281677,722.453003 730.227966,717.477661 730.176514,712.001587 
z"/>
<path fill="#08393A" opacity="1.000000" stroke="none" 
	d="
M690.482849,686.342529 
	C690.487915,675.816345 690.636292,665.688660 690.537109,655.563416 
	C690.509583,652.763855 690.338867,650.723755 694.165588,650.733948 
	C697.661194,650.743286 699.996582,651.226074 699.930969,655.461975 
	C699.781555,665.106689 699.796753,674.754089 699.768921,684.400452 
	C699.735474,696.004028 699.797241,707.608398 699.677551,719.210999 
	C699.617432,725.035400 703.504517,724.388550 707.220947,724.108765 
	C710.456726,723.865112 713.240173,723.867493 713.404602,728.358398 
	C713.550598,732.343933 712.778442,734.694519 707.993896,734.089905 
	C704.548828,733.654663 701.010864,733.973999 697.515015,733.916321 
	C692.015991,733.825684 690.789978,732.749146 690.740417,727.102051 
	C690.638489,715.477356 690.739807,703.850952 690.733093,692.225281 
	C690.732056,690.397461 690.602661,688.569702 690.482849,686.342529 
z"/>
<path fill="#033739" opacity="1.000000" stroke="none" 
	d="
M398.966309,746.998840 
	C401.287994,746.998840 403.166412,747.273804 404.933411,746.946716 
	C410.013489,746.006592 410.826050,748.912964 410.606354,752.880188 
	C410.035004,763.199463 400.791412,771.498901 390.522766,770.932922 
	C380.004364,770.353149 371.855103,761.512817 372.116516,751.159119 
	C372.194916,748.053406 373.173889,746.794067 376.544861,746.917480 
	C383.845184,747.184814 391.162048,746.999207 398.966309,746.998840 
z"/>
<path fill="#EFA082" opacity="1.000000" stroke="none" 
	d="
M598.021606,534.668152 
	C610.873291,538.249268 618.162292,549.882690 615.306030,561.735901 
	C612.357056,573.973694 600.564697,581.683960 588.606506,579.193054 
	C576.577515,576.687439 568.462891,565.031616 570.600159,553.329041 
	C573.013916,540.112732 583.997437,532.481995 598.021606,534.668152 
z"/>
<path fill="#EA9E80" opacity="1.000000" stroke="none" 
	d="
M457.712433,724.831787 
	C452.038818,724.486816 451.075562,720.601562 450.990906,716.428955 
	C450.738464,703.992615 450.668945,691.552307 450.566620,679.113281 
	C450.537994,675.630493 450.633820,672.146545 450.690765,668.663452 
	C450.720886,666.820923 451.079742,665.066162 451.836090,663.351624 
	C452.922546,660.888916 454.435516,658.834351 457.350311,659.226807 
	C460.309906,659.625305 462.058716,661.726196 462.195374,664.713135 
	C462.513123,671.656738 462.761658,678.607239 462.837860,685.557190 
	C462.946838,695.493042 462.917877,705.431091 462.862549,715.367737 
	C462.841034,719.230042 462.561676,723.077759 457.712433,724.831787 
z"/>
<path fill="#E99D80" opacity="1.000000" stroke="none" 
	d="
M401.140015,682.999268 
	C401.066986,676.210693 400.786316,669.918457 401.514893,663.645386 
	C401.710693,661.959656 401.907623,660.117371 403.739960,659.530823 
	C405.648346,658.919922 407.162933,660.065063 408.588013,661.325500 
	C410.544342,663.055847 411.478577,665.361572 412.385925,667.662292 
	C416.225586,677.398193 415.915192,687.073853 411.538391,696.548401 
	C410.880554,697.972473 409.512634,699.154907 408.263580,700.198120 
	C406.611633,701.577820 404.646149,703.042542 402.438904,701.910217 
	C400.521545,700.926636 401.144470,698.658813 401.110413,696.918091 
	C401.022827,692.447144 401.122040,687.972473 401.140015,682.999268 
z"/>
<path fill="#E99D80" opacity="1.000000" stroke="none" 
	d="
M654.314270,705.972229 
	C650.590515,705.256348 649.261292,703.277588 649.602356,699.865417 
	C650.442261,691.462830 651.516113,683.097961 653.133362,674.808411 
	C653.377930,673.554688 653.405151,671.926636 655.273071,672.016235 
	C656.808228,672.089966 656.875000,673.518860 657.043213,674.619568 
	C658.318665,682.965027 659.667175,691.302246 660.740356,699.674438 
	C661.287415,703.941528 659.290405,706.332886 654.314270,705.972229 
z"/>
<path fill="#E99D80" opacity="1.000000" stroke="none" 
	d="
M576.866455,673.421936 
	C577.938416,681.600464 577.547791,689.119629 573.173523,695.954041 
	C572.550415,696.927612 572.014221,698.118958 571.111389,698.716553 
	C569.382568,699.860901 567.750732,701.941895 565.379700,701.020996 
	C563.110840,700.139709 563.333435,697.636169 563.310486,695.786621 
	C563.180420,685.325500 563.249451,674.861633 563.298828,664.398865 
	C563.307800,662.495850 563.741821,660.554688 565.946777,660.139099 
	C568.278687,659.699463 570.568176,659.870422 572.248352,662.060547 
	C574.745789,665.316040 575.988159,669.059509 576.866455,673.421936 
z"/>
<path fill="#E99D80" opacity="1.000000" stroke="none" 
	d="
M365.263550,680.235107 
	C365.233948,688.227417 363.664032,695.190674 357.153107,700.011292 
	C353.862976,702.447388 351.860107,701.383728 351.509918,697.410828 
	C350.515564,686.130249 351.447113,674.833740 351.389801,663.544434 
	C351.381165,661.844543 352.221069,660.286377 354.296143,660.062927 
	C356.725708,659.801392 358.901581,660.112305 360.468445,662.347046 
	C364.158569,667.610229 365.381134,673.519775 365.263550,680.235107 
z"/>
<path fill="#08393A" opacity="1.000000" stroke="none" 
	d="
M597.736877,552.559021 
	C599.814209,555.857483 599.911133,558.782654 597.286621,561.355103 
	C595.150146,563.449097 592.578735,563.676514 590.020813,562.218140 
	C587.448486,560.751648 586.474731,558.375549 586.986877,555.478699 
	C587.807434,550.837280 592.306030,549.479004 597.736877,552.559021 
z"/>
</svg>