<svg version="1.1" id="Layer_1" xmlns="http://www.w3.org/2000/svg" xmlns:xlink="http://www.w3.org/1999/xlink" x="0px" y="0px"
	 width="100%" viewBox="0 0 1200 1200" enable-background="new 0 0 1200 1200" xml:space="preserve">
<path fill="#000000" opacity="1.000000" stroke="none" 
	d="
M584.000000,1201.000000 
	C390.833344,1201.000000 198.166672,1200.987427 5.500052,1201.093750 
	C1.750736,1201.095825 0.906084,1200.249023 0.907021,1196.500000 
	C1.006199,799.500000 1.006199,402.500000 0.907021,5.500023 
	C0.906084,1.750933 1.750933,0.906086 5.500023,0.907022 
	C402.500000,1.006185 799.500000,1.006186 1196.500000,0.907022 
	C1200.249023,0.906086 1201.093994,1.750932 1201.093140,5.500023 
	C1200.993896,402.500000 1200.993896,799.500000 1201.093140,1196.500000 
	C1201.093994,1200.249023 1200.249268,1201.095581 1196.500000,1201.093628 
	C992.500000,1200.988037 788.500000,1201.000000 584.000000,1201.000000 
z"/>
<path fill="#F1A283" opacity="1.000000" stroke="none" 
	d="
M460.687775,784.998291 
	C464.825348,785.578247 468.565033,786.139099 471.798279,788.033508 
	C474.381104,789.546875 475.903290,788.722046 477.754456,786.817810 
	C484.374878,780.007935 490.997864,773.186096 497.931305,766.701660 
	C500.972900,763.857117 502.635132,760.979065 502.046265,756.786804 
	C501.770782,754.825562 501.800049,752.769043 502.044434,750.799500 
	C502.431152,747.683044 501.273254,746.910522 498.195251,746.929016 
	C475.697662,747.064636 453.198730,747.044373 430.700745,746.950806 
	C427.746887,746.938538 427.024658,747.407898 427.154755,750.775024 
	C427.842194,768.568176 416.882172,783.274963 398.044281,786.964417 
	C382.228180,790.062073 369.888062,784.137085 360.860992,771.228271 
	C356.889771,765.549377 355.103302,758.772522 355.159210,751.908875 
	C355.195129,747.500549 353.742767,746.876343 349.819305,746.910217 
	C327.824097,747.100464 305.826355,747.001831 283.420990,747.001831 
	C284.864716,742.264099 288.084808,738.787231 290.606018,735.035889 
	C300.204041,720.755005 310.081451,706.659790 320.023468,692.614807 
	C321.390594,690.683533 319.686493,690.358337 319.130310,689.532715 
	C307.345856,672.041138 295.501007,654.590210 283.675446,637.126221 
	C283.416626,636.744019 283.245880,636.302307 282.916260,635.658020 
	C284.648438,634.478516 286.503448,635.030212 288.193909,635.028931 
	C339.356873,634.991943 390.520050,634.938354 441.682465,635.107300 
	C446.033844,635.121704 447.293579,634.171570 447.118530,629.713806 
	C446.733063,619.896301 446.906738,610.051880 447.054504,600.221497 
	C447.099121,597.254700 446.711060,595.869507 443.129120,595.862732 
	C438.325531,595.853638 436.055511,596.671570 433.610016,601.966492 
	C426.642120,617.053223 414.231140,625.514587 394.882263,622.738220 
	C379.651520,620.552734 368.081818,610.547913 365.243561,593.748413 
	C362.114441,575.227173 371.377747,558.891296 389.436829,552.923950 
	C408.194672,546.725769 428.270020,556.622131 434.990417,575.245544 
	C436.096649,578.311096 443.898224,580.723877 446.379700,578.746887 
	C447.304382,578.010254 446.984100,576.913635 446.984894,575.959229 
	C447.001770,555.960693 446.955902,535.961914 447.050049,515.963806 
	C447.061920,513.450317 446.147888,512.889709 443.862701,512.959900 
	C439.200775,513.103027 434.507111,512.706177 429.871887,513.085632 
	C425.303741,513.459656 421.986694,511.632660 419.025208,508.542999 
	C410.947083,500.115173 402.786072,491.764954 394.824646,483.228516 
	C392.885315,481.149139 391.513519,481.124451 389.034973,482.379364 
	C367.215790,493.426392 341.964478,478.598450 337.725952,456.021667 
	C334.276001,437.645050 348.088928,417.080688 366.960541,414.163483 
	C387.881714,410.929504 407.488892,425.102875 409.067383,446.492645 
	C409.613495,453.893188 408.737488,460.882507 405.025879,467.303406 
	C404.158539,468.803833 404.740845,469.234619 405.546387,470.040985 
	C413.788696,478.291473 421.868927,486.713104 430.341919,494.719177 
	C433.492310,497.695953 437.988556,495.513885 441.842773,495.978210 
	C445.053833,496.364960 446.796478,496.130737 447.236511,491.616516 
	C448.550812,478.133209 454.776581,467.298248 467.006561,460.408630 
	C474.654968,456.099976 482.912811,455.000153 491.461487,454.998077 
	C502.003662,454.995544 501.833191,454.993195 502.092285,444.443115 
	C502.182159,440.783936 501.057007,438.302277 498.445740,435.822906 
	C491.559845,429.284729 484.849792,422.551239 478.290680,415.684479 
	C476.023712,413.311218 474.338501,412.929047 471.131104,414.248047 
	C451.217957,422.437317 427.723328,413.700470 421.301758,391.375458 
	C415.146759,369.977142 429.374359,348.692413 450.862305,345.896362 
	C470.217926,343.377716 484.359924,353.764130 490.268921,369.904816 
	C493.514587,378.770508 492.874146,387.958008 488.679413,396.515198 
	C487.420563,399.083191 487.681213,400.324615 489.613953,402.204315 
	C497.737183,410.104523 505.539307,418.338776 513.759155,426.134277 
	C518.270020,430.412323 520.514282,435.085846 520.117126,441.405396 
	C519.841309,445.794312 518.079407,451.723083 520.961975,454.265869 
	C523.432556,456.445343 529.191406,454.974243 533.496277,454.983704 
	C549.328430,455.018433 565.161804,454.897186 580.991943,455.078369 
	C584.327332,455.116547 584.979980,454.089355 585.126282,450.920197 
	C585.357788,445.905670 584.176025,443.564667 578.772827,441.579865 
	C567.961548,437.608459 561.365845,428.985321 558.275513,417.707458 
	C552.724976,397.451477 566.250183,376.515961 586.260376,373.265411 
	C608.329163,369.680389 624.899292,381.281464 628.651672,402.223785 
	C631.863770,420.150726 624.700500,434.653137 605.459167,442.805573 
	C602.718567,443.966766 600.426147,452.254150 602.311951,454.433441 
	C603.074463,455.314636 604.167114,454.981812 605.121460,454.982697 
	C624.620056,455.001251 644.119141,454.927246 663.616699,455.068604 
	C666.694946,455.090881 667.140076,453.890808 667.046997,451.280731 
	C666.874878,446.453918 667.122009,441.612457 666.962341,436.784760 
	C666.811035,432.208954 669.084656,429.287659 672.969482,427.546692 
	C687.889404,420.860352 702.765198,414.058777 717.869202,407.811981 
	C721.657410,406.245178 722.264099,404.264526 722.031555,400.844818 
	C721.310303,390.240540 725.336853,381.542999 732.537048,373.875549 
	C745.645325,359.916473 770.111816,360.165955 783.433411,373.754395 
	C797.539001,388.142670 797.513306,411.495789 783.290588,425.184967 
	C769.683167,438.281952 746.583984,439.002014 732.886414,425.227814 
	C730.109802,422.435577 728.080383,422.067993 724.560425,423.705170 
	C712.235107,429.437744 699.732117,434.788269 687.294312,440.278839 
	C685.671509,440.995209 685.000793,442.013245 684.927124,443.985443 
	C684.515381,455.000427 684.433594,455.007111 695.585205,454.994751 
	C706.806885,454.982300 717.011292,457.297607 725.854370,465.117493 
	C734.222961,472.517822 737.886658,481.765381 738.856750,492.325562 
	C739.149475,495.511749 740.125488,495.674255 742.862976,496.138306 
	C752.470581,497.766907 759.535156,493.533569 766.144226,487.417053 
	C769.622192,484.198273 773.308167,481.148682 777.202209,478.460022 
	C778.985657,477.228668 778.918152,476.611603 778.390991,474.668793 
	C772.505066,452.974396 782.950684,433.462555 804.500854,428.513489 
	C825.652832,423.655853 844.525208,436.626221 848.060181,457.856384 
	C850.897644,474.898224 843.975159,487.293640 829.751648,495.488220 
	C817.275452,502.676086 804.165588,501.387726 792.428833,493.467712 
	C788.512878,490.825195 787.150696,492.818054 785.035400,494.527649 
	C778.922241,499.468109 772.912659,504.537903 766.905701,509.608307 
	C761.425476,514.234192 754.934021,514.190918 748.284607,514.051514 
	C739.004883,513.856934 739.001831,514.002441 739.001831,523.313721 
	C739.001770,540.312500 738.948792,557.311707 739.091187,574.309326 
	C739.104126,575.853149 737.463806,579.150024 740.888123,578.829773 
	C744.309814,578.509888 749.040894,581.662476 750.978882,575.889954 
	C754.887878,564.246033 762.843689,556.892944 774.430054,552.851135 
	C796.478760,545.159546 819.890442,562.071716 821.180481,584.596924 
	C822.325806,604.596375 809.859802,619.193237 792.225403,622.582275 
	C774.049377,626.075439 758.739319,617.722107 751.442139,599.921997 
	C750.181213,596.846069 741.984497,594.194580 739.591736,596.312622 
	C738.445129,597.327576 739.033325,598.831726 739.027588,600.102661 
	C738.981506,610.268372 739.231812,620.442139 738.888428,630.596497 
	C738.751587,634.642090 740.241333,635.081787 743.699768,635.070984 
	C780.863403,634.954895 818.027527,634.998718 855.191528,634.998779 
	C869.857117,634.998840 884.522827,634.978088 899.188171,635.037048 
	C900.393616,635.041870 901.997009,634.262024 902.790039,635.737793 
	C903.582214,637.211914 902.170471,638.076050 901.435608,639.150330 
	C890.257568,655.491455 879.193176,671.911133 867.888550,688.163818 
	C866.178711,690.622009 866.272766,692.135437 867.885315,694.459778 
	C879.641968,711.406738 891.267639,728.444580 902.926086,745.459595 
	C903.166992,745.811218 903.303467,746.234375 903.668091,747.001831 
	C883.693237,747.001831 864.072327,747.050842 844.452087,746.951477 
	C841.335693,746.935669 839.068726,747.694885 836.508545,749.795715 
	C821.867004,761.810364 802.397339,761.898376 788.321716,748.761047 
	C786.808044,747.348267 785.372498,746.976440 783.475769,746.978455 
	C751.978027,747.011597 720.480103,747.057983 688.982971,746.920898 
	C685.599915,746.906189 685.177246,748.036011 684.859619,751.100281 
	C684.177551,757.679504 685.758911,761.620972 692.675781,764.170288 
	C703.743225,768.249573 714.316528,773.674683 725.077393,778.577698 
	C728.017700,779.917358 730.084839,779.555725 732.608765,777.059692 
	C743.760925,766.030640 757.386292,764.125366 771.514832,769.193237 
	C784.464539,773.838135 791.921814,784.275269 793.858398,797.717102 
	C796.763550,817.883057 782.616150,834.544678 764.436646,838.194458 
	C749.794250,841.134155 734.294373,833.457397 727.110352,821.454529 
	C723.311646,815.107849 721.329895,808.011475 722.010803,800.439392 
	C722.290222,797.332642 721.539917,795.780518 718.096558,794.354309 
	C702.849792,788.039062 687.862610,781.095459 672.807678,774.320923 
	C669.076538,772.641907 666.894653,769.850952 666.975708,765.509094 
	C667.072144,760.344604 666.880066,755.173096 667.048340,750.012268 
	C667.128418,747.556274 666.251709,746.948242 663.910767,746.957703 
	C644.245850,747.037292 624.580383,747.024231 604.915283,746.971008 
	C602.900635,746.965576 602.060669,747.366577 601.918518,749.672546 
	C601.610291,754.673584 602.094055,757.909302 607.984436,760.276550 
	C621.390808,765.664307 630.666077,778.639404 629.059387,799.126770 
	C628.187561,810.241943 617.255676,824.079346 604.489746,827.667847 
	C583.101501,833.680176 562.842407,822.356750 557.810608,799.777954 
	C554.157959,783.388062 565.431763,763.645447 581.836731,758.948486 
	C587.709351,757.266968 584.514954,752.356323 584.841187,748.934753 
	C585.170898,745.476196 581.895813,747.099731 580.355286,747.088745 
	C561.690918,746.954773 543.024475,747.091248 524.360657,746.920654 
	C520.945312,746.889526 519.916504,747.645264 519.904785,751.238892 
	C519.836365,772.261169 522.620789,766.722290 506.881592,782.612122 
	C501.252197,788.295288 495.720520,794.089294 489.843964,799.506958 
	C487.402039,801.758301 487.797272,803.391785 488.933655,806.057251 
	C495.100830,820.522705 493.135284,835.140259 482.219849,845.885376 
	C468.836395,859.060059 450.430420,861.681030 433.858032,849.170471 
	C422.522186,840.612915 418.026367,828.269531 420.422394,814.517700 
	C423.195282,798.603027 433.563843,788.827576 449.253174,785.147156 
	C452.731171,784.331360 456.559357,785.008484 460.687775,784.998291 
z"/>
<path fill="#000000" opacity="1.000000" stroke="none" 
	d="
M465.001587,575.000000 
	C465.001770,548.168762 465.293335,521.832825 464.870605,495.508362 
	C464.678925,483.572662 472.228973,474.210907 483.600037,472.661011 
	C486.393066,472.280334 488.956787,473.099243 491.670959,473.094696 
	C561.331909,472.977905 630.993347,473.095917 700.653931,472.892273 
	C710.092285,472.864624 719.647644,480.459442 721.142883,490.796173 
	C721.786804,495.248169 721.983154,499.631897 721.985474,504.066040 
	C722.007019,545.896057 721.905945,587.726562 722.124756,629.555420 
	C722.149719,634.328552 720.683960,635.352966 716.339539,635.086792 
	C710.528442,634.730774 704.666016,634.760498 698.851013,635.082947 
	C695.012817,635.295776 693.874634,634.263000 693.899719,630.246704 
	C694.087524,600.250244 694.221680,570.249756 693.903870,540.255493 
	C693.758789,526.560120 688.306641,516.652344 675.215759,512.748901 
	C671.816467,511.735321 668.288513,510.982330 664.661987,510.989746 
	C651.329773,511.017090 637.966370,510.412048 624.671143,511.113983 
	C588.745972,513.010742 552.808716,511.253876 516.891235,512.080505 
	C504.496735,512.365784 493.289276,522.322571 493.130768,534.785522 
	C492.730042,566.288391 492.862823,597.800964 493.136230,629.306580 
	C493.179749,634.323425 491.740265,635.445068 487.085388,635.101562 
	C481.284119,634.673462 475.414154,634.762451 469.599121,635.084534 
	C465.920746,635.288269 464.852905,634.324951 464.900146,630.494263 
	C465.126129,612.165161 465.001526,593.831848 465.001587,575.000000 
z"/>
<path fill="#000000" opacity="1.000000" stroke="none" 
	d="
M676.000549,611.840576 
	C676.391296,617.670471 677.730957,622.981995 676.576416,629.348633 
	C667.416626,617.126831 658.794312,605.421204 649.941467,593.892517 
	C645.329224,587.886230 641.752686,580.693787 633.837036,578.033081 
	C621.810730,573.990540 611.544373,577.386597 603.262329,589.308716 
	C601.501831,591.843018 599.612000,594.288635 597.746460,596.748352 
	C596.258850,598.709717 594.717407,600.630371 593.199829,602.569031 
	C591.527710,600.561279 589.724426,598.647095 588.210205,596.526550 
	C584.889343,591.875854 581.580444,587.257629 577.639282,583.064453 
	C568.375549,573.208374 550.390564,575.439636 542.830566,586.195984 
	C532.653320,600.676025 521.591125,614.534058 510.848633,628.738647 
	C509.392609,627.501526 510.039734,626.090942 510.037842,624.904663 
	C509.992004,596.094543 509.998260,567.284363 510.004913,538.474182 
	C510.006226,532.809204 513.717224,529.021912 519.498657,529.018555 
	C568.792358,528.989990 618.086121,528.991943 667.379822,529.016235 
	C673.167969,529.019043 675.982605,531.963623 675.988281,537.917908 
	C676.011658,562.398193 675.999634,586.878479 676.000549,611.840576 
z"/>
<path fill="#083939" opacity="1.000000" stroke="none" 
	d="
M507.031647,721.139893 
	C505.258392,714.415039 503.516724,708.106079 501.775055,701.797119 
	C499.385254,705.429138 499.570953,709.205017 499.252441,712.871338 
	C498.735687,718.819214 498.336548,724.778564 497.976349,730.738403 
	C497.768433,734.178528 495.959534,735.231323 492.695099,735.058716 
	C489.074036,734.867188 489.435303,732.540344 489.563690,730.133423 
	C490.829285,706.412109 491.990265,682.684509 493.450623,658.975342 
	C493.634949,655.982605 492.638031,650.949097 496.878937,650.623047 
	C501.375854,650.277344 501.104401,655.368347 501.854950,658.543335 
	C504.608765,670.192688 507.145172,681.893433 509.777283,693.571655 
	C509.996277,694.543213 510.280090,695.504761 510.604065,696.446838 
	C510.976288,697.529297 511.181244,699.003174 512.510010,699.123230 
	C514.071655,699.264099 514.678894,697.858398 515.207092,696.592834 
	C517.282043,691.620605 517.790894,686.266663 519.002625,681.084229 
	C521.046692,672.342224 523.040344,663.587952 525.156555,654.863403 
	C525.611816,652.986511 526.021240,650.860901 528.823669,650.917542 
	C532.048096,650.982788 531.892822,653.472046 532.214233,655.507385 
	C534.059143,667.193115 533.695557,679.029602 534.476257,690.789551 
	C535.301392,703.218567 535.615479,715.682068 536.100830,728.132568 
	C536.230530,731.459473 536.187561,734.567139 531.227539,734.067505 
	C527.734985,733.715637 527.499451,731.772705 527.367371,728.969543 
	C526.933167,719.749390 527.069824,710.477112 525.467468,700.123657 
	C521.817810,706.150696 521.643005,711.988098 520.222290,717.418152 
	C519.130920,721.589355 518.433655,725.863403 517.351440,730.037354 
	C516.826904,732.060059 516.302490,734.117554 513.234680,734.132080 
	C510.322968,734.145813 509.489136,732.570923 508.976013,730.324829 
	C508.309662,727.408386 507.698273,724.479431 507.031647,721.139893 
z"/>
<path fill="#093A3A" opacity="1.000000" stroke="none" 
	d="
M441.390717,700.004272 
	C441.476196,688.873901 441.349091,678.233948 441.799988,667.618652 
	C442.045227,661.844971 442.793976,655.909119 448.133545,652.046631 
	C457.235229,645.462585 469.889374,651.007629 470.946991,662.179260 
	C472.732849,681.043945 472.652557,699.971497 472.169342,718.883484 
	C471.992188,725.817749 468.747375,731.451904 461.979797,734.094604 
	C456.383026,736.280090 451.122314,734.887695 446.711365,730.934021 
	C442.283783,726.965393 441.601349,721.349365 441.221802,715.923523 
	C440.864349,710.813599 441.320679,705.646790 441.390717,700.004272 
z"/>
<path fill="#093A3A" opacity="1.000000" stroke="none" 
	d="
M416.924072,735.003235 
	C413.127899,735.406067 411.299011,734.367859 410.899567,730.551270 
	C410.437134,726.132629 409.895111,721.651733 408.260925,717.422974 
	C407.570496,715.636230 406.895599,713.867065 404.534302,714.151794 
	C402.247864,714.427429 401.711761,716.129211 401.606781,718.128296 
	C401.380066,722.446716 400.922882,726.762024 400.906219,731.079956 
	C400.890533,735.140503 398.087311,734.343140 395.713867,734.510132 
	C392.946411,734.704834 392.033264,733.578552 392.054199,730.696533 
	C392.228180,706.774414 392.191650,682.850769 392.315460,658.928162 
	C392.357574,650.788635 393.323730,649.948792 401.229004,649.983582 
	C411.518494,650.028992 419.129456,655.339966 421.778748,665.469238 
	C425.505493,679.718079 425.807190,693.799561 416.705170,706.559753 
	C415.044037,708.888489 415.452484,711.320740 415.969482,713.749634 
	C417.145111,719.273010 418.405640,724.779907 419.741119,730.266846 
	C420.316803,732.632019 420.593628,734.646118 416.924072,735.003235 
z"/>
<path fill="#083939" opacity="1.000000" stroke="none" 
	d="
M645.395081,672.336304 
	C646.526794,666.013855 647.202576,660.067322 648.782898,654.259094 
	C649.548828,651.443665 650.634277,649.811157 653.797485,649.951233 
	C656.984619,650.092285 660.321350,649.591309 661.209656,653.967041 
	C662.698547,661.301697 664.545593,668.574707 665.746704,675.954346 
	C668.602173,693.498291 671.041382,711.110229 673.933472,728.647705 
	C674.725342,733.449890 672.802612,734.435242 668.674927,734.216553 
	C666.414124,734.096741 665.419678,733.275940 665.132629,731.033813 
	C664.752747,728.066162 664.212524,725.101257 663.481140,722.200684 
	C662.479126,718.226440 660.155457,715.745361 655.653564,716.099487 
	C651.368103,716.436523 647.778809,717.645447 646.766846,722.508789 
	C646.191406,725.274170 645.526550,728.020996 644.952332,730.786560 
	C644.476807,733.076721 643.256775,733.992859 640.793701,734.095581 
	C637.169861,734.246643 635.926392,733.673096 636.634827,729.421753 
	C639.774597,710.578674 642.446716,691.657593 645.395081,672.336304 
z"/>
<path fill="#000000" opacity="1.000000" stroke="none" 
	d="
M592.201660,633.316772 
	C601.098022,621.415771 609.745300,609.800171 618.379639,598.174805 
	C622.800598,592.222351 626.605042,592.479370 631.367371,598.768188 
	C640.388000,610.680054 649.543884,622.489563 659.148132,634.998779 
	C649.503113,634.998779 640.590393,634.999817 631.677612,634.998474 
	C618.681335,634.996460 605.684998,634.997803 592.688782,634.964600 
	C592.303711,634.963623 591.919556,634.591858 591.534973,634.392944 
	C591.672363,634.127930 591.809814,633.862976 592.201660,633.316772 
z"/>
<path fill="#063939" opacity="1.000000" stroke="none" 
	d="
M369.865417,701.827515 
	C367.081360,707.201111 363.520721,711.249268 357.809021,712.764893 
	C352.936310,714.057922 350.524872,716.945801 350.925476,722.109009 
	C351.105164,724.424805 350.887268,726.768555 350.973297,729.095093 
	C351.110168,732.798218 349.669281,734.415833 345.711243,734.237549 
	C341.395355,734.042969 342.690552,731.187561 342.699219,728.928467 
	C342.786530,706.145142 343.426422,683.348450 342.825165,660.584167 
	C342.490723,647.921631 349.636475,647.424561 359.118103,650.246094 
	C366.203491,652.354675 370.504639,657.963928 372.661713,665.522339 
	C376.216644,677.979065 375.228790,689.818970 369.865417,701.827515 
z"/>
<path fill="#063939" opacity="1.000000" stroke="none" 
	d="
M564.052979,649.092773 
	C574.359558,649.327332 581.462036,655.474487 584.469910,665.170776 
	C588.424072,677.917358 587.304443,690.104370 581.744934,702.007935 
	C579.343994,707.148621 575.652405,711.173157 569.962036,712.694580 
	C564.850342,714.061279 562.549866,717.169678 562.908569,722.432434 
	C563.066467,724.749390 562.850220,727.089722 562.947205,729.413452 
	C563.097534,733.010681 561.551941,734.285889 557.898499,734.238831 
	C553.647583,734.183960 554.664856,731.492371 554.677429,729.117920 
	C554.800537,705.850281 554.972961,682.582703 555.015808,659.314880 
	C555.030640,651.256348 555.792969,650.178650 564.052979,649.092773 
z"/>
<path fill="#063939" opacity="1.000000" stroke="none" 
	d="
M779.765442,650.222900 
	C783.228577,651.292664 786.390076,650.577881 789.510864,650.661926 
	C792.671387,650.747192 793.926514,652.001709 794.039001,655.138367 
	C794.152649,658.306580 793.275208,660.057068 789.836853,660.557617 
	C779.346130,662.085083 779.361938,662.179260 779.531738,672.710327 
	C779.622864,678.360413 779.944275,684.020142 779.719238,689.657837 
	C779.525757,694.503906 781.627625,696.479614 786.218384,696.038574 
	C789.468933,695.726318 791.396362,696.541321 790.929077,700.286377 
	C790.558777,703.254150 791.528259,706.698914 786.154236,706.156738 
	C780.723816,705.608948 779.615723,707.170105 779.453064,712.748840 
	C779.424072,713.745178 779.169495,714.742554 779.207703,715.732178 
	C779.504700,723.432373 779.153870,723.075745 786.132751,723.313232 
	C789.705139,723.434692 794.170471,722.328613 793.927917,728.694458 
	C793.788574,732.351440 792.394775,733.914856 788.976379,733.926819 
	C784.516174,733.942444 780.121399,733.897644 775.656006,734.831726 
	C771.764648,735.645691 770.174072,732.851318 769.863403,729.119812 
	C769.103821,719.999512 769.648621,710.875854 769.620911,701.755859 
	C769.580017,688.311829 769.509766,674.861145 769.883301,661.425232 
	C770.121033,652.874573 771.154907,652.076782 779.765442,650.222900 
z"/>
<path fill="#000000" opacity="1.000000" stroke="none" 
	d="
M571.739380,603.343567 
	C574.889282,607.524841 577.751160,611.468262 580.814514,615.248413 
	C582.051697,616.775085 582.385376,617.832581 581.029053,619.522949 
	C577.879089,623.448975 574.860229,627.489563 571.969543,631.610962 
	C570.135986,634.225159 567.968933,635.150085 564.703552,635.088379 
	C552.740906,634.862122 540.771423,634.998779 527.974548,634.998779 
	C532.891357,628.238342 537.419128,621.875061 542.095154,615.622620 
	C546.675964,609.497559 551.187317,603.297913 556.139221,597.479980 
	C560.516785,592.336792 562.236755,592.505737 566.845642,597.383301 
	C568.523804,599.159302 569.976624,601.148254 571.739380,603.343567 
z"/>
<path fill="#093A3A" opacity="1.000000" stroke="none" 
	d="
M831.561035,699.954468 
	C830.257324,708.606567 831.731384,716.888977 831.114868,725.148254 
	C830.991699,726.797302 830.892395,728.449097 830.829834,730.101501 
	C830.736450,732.570435 830.026123,734.208191 827.016357,734.055908 
	C824.079407,733.907288 822.849365,732.621094 822.912537,729.724182 
	C823.035583,724.081787 822.717529,718.410278 823.173645,712.798889 
	C823.948669,703.263916 821.370056,694.359375 818.734619,685.444641 
	C815.724121,675.261353 812.450867,665.155029 809.527771,654.947693 
	C809.109924,653.488770 807.213928,650.734009 810.516968,650.130371 
	C813.109497,649.656616 816.220581,648.937439 817.427429,652.914185 
	C819.496216,659.730774 821.773682,666.480530 824.628784,673.027771 
	C825.249390,674.450989 825.613708,676.130737 827.327881,676.163025 
	C829.279602,676.199829 829.990662,674.359070 830.571350,672.831238 
	C832.512207,667.724854 834.341003,662.575928 836.221069,657.446350 
	C836.791687,655.889465 837.394165,654.344177 837.973267,652.790283 
	C839.224365,649.433289 842.035400,649.439392 844.595642,650.300964 
	C847.425232,651.253235 845.834717,653.614685 845.393127,655.405396 
	C841.698914,670.387390 835.926697,684.728027 831.561035,699.954468 
z"/>
<path fill="#000000" opacity="1.000000" stroke="none" 
	d="
M773.295959,573.209717 
	C781.053955,566.439148 789.672485,567.175293 796.235168,571.895203 
	C803.829346,577.357056 806.054749,587.291443 802.143982,595.450989 
	C798.761292,602.508789 788.792847,607.727661 781.709900,605.816650 
	C773.239075,603.531250 766.923584,596.800842 766.861084,587.731018 
	C766.820251,581.789368 768.596558,577.195129 773.295959,573.209717 
z"/>
<path fill="#000000" opacity="1.000000" stroke="none" 
	d="
M582.794434,808.287598 
	C575.374634,803.787598 573.918518,796.566956 575.169312,789.270325 
	C576.420837,781.969482 581.488281,777.172241 588.503601,775.100159 
	C595.813293,772.941162 602.314636,775.010193 607.273621,780.839172 
	C611.900696,786.278076 613.550232,792.598633 610.959656,799.458069 
	C606.855408,810.325439 593.234558,816.356018 582.794434,808.287598 
z"/>
<path fill="#000000" opacity="1.000000" stroke="none" 
	d="
M757.183350,380.034546 
	C767.327942,381.526489 774.170837,385.842194 776.323853,396.481079 
	C777.766663,403.610199 775.022156,408.584076 770.418396,412.929779 
	C765.833740,417.257446 760.285706,419.150299 753.813660,417.374908 
	C743.051453,414.422607 739.274902,406.822754 739.217224,398.523926 
	C739.163696,390.805206 745.170959,382.492249 755.489807,380.814819 
	C755.945190,380.740814 756.343933,380.318970 757.183350,380.034546 
z"/>
<path fill="#000000" opacity="1.000000" stroke="none" 
	d="
M750.553833,819.824951 
	C740.932251,815.506348 737.655334,805.552124 740.034607,797.044006 
	C742.050537,789.835144 750.825500,783.745667 758.838501,784.001831 
	C765.908813,784.227905 773.841187,790.179993 775.889832,796.733765 
	C778.578369,805.334534 774.865295,813.210510 769.416260,817.428711 
	C763.442871,822.052917 757.412354,821.538330 750.553833,819.824951 
z"/>
<path fill="#000000" opacity="1.000000" stroke="none" 
	d="
M384.642456,577.874146 
	C392.786865,565.019348 409.441284,565.240784 417.053345,578.426331 
	C422.692230,588.193909 418.245056,599.938232 407.953278,604.534180 
	C398.254425,608.865540 386.920410,603.623474 383.062317,593.157715 
	C381.133636,587.925903 381.883362,582.967163 384.642456,577.874146 
z"/>
<path fill="#000000" opacity="1.000000" stroke="none" 
	d="
M462.657043,802.890808 
	C471.325958,807.145630 477.055328,816.535278 474.100128,825.442749 
	C469.961090,837.918457 456.873962,842.547424 446.622528,836.733032 
	C440.034515,832.996460 436.721313,826.255920 437.287506,818.988953 
	C437.898224,811.150818 443.234070,804.523315 451.138306,802.466431 
	C454.746948,801.527466 458.594727,801.377625 462.657043,802.890808 
z"/>
<path fill="#000000" opacity="1.000000" stroke="none" 
	d="
M828.344238,453.814880 
	C836.106506,467.755676 826.646057,481.646027 813.787109,482.203400 
	C806.605713,482.514709 799.600769,479.254333 796.274048,472.672058 
	C792.405762,465.018250 793.279419,457.284760 798.623718,451.871399 
	C808.306213,442.063751 821.350037,442.797913 828.344238,453.814880 
z"/>
<path fill="#000000" opacity="1.000000" stroke="none" 
	d="
M587.367920,391.012787 
	C593.940796,389.072174 599.566284,389.803833 604.624390,394.106476 
	C610.937256,399.476471 613.752502,405.786774 611.074707,414.119598 
	C608.760864,421.320007 604.072693,425.632355 596.706726,426.978760 
	C587.743469,428.617096 578.376709,423.510223 575.834656,414.604126 
	C573.316101,405.780548 575.684265,395.975708 587.367920,391.012787 
z"/>
<path fill="#000000" opacity="1.000000" stroke="none" 
	d="
M385.185303,464.315674 
	C376.013428,470.855194 369.635040,469.719086 362.947266,465.263855 
	C355.416229,460.246857 353.106323,451.728699 356.026276,443.152557 
	C358.262970,436.583221 368.799042,429.811890 375.000488,431.057251 
	C385.724213,433.210754 392.028992,441.233521 392.094910,448.976593 
	C392.147797,455.186279 390.308044,460.188416 385.185303,464.315674 
z"/>
<path fill="#000000" opacity="1.000000" stroke="none" 
	d="
M437.040771,380.145935 
	C439.031128,371.862244 443.056885,365.429718 451.283203,363.373322 
	C461.058777,360.929565 470.615723,365.353119 474.640045,378.060211 
	C476.462280,383.814117 471.603973,395.688049 462.319366,398.954071 
	C451.146332,402.884399 438.615173,394.878021 437.960693,383.793427 
	C437.896210,382.700500 437.344177,381.636353 437.040771,380.145935 
z"/>
<path fill="#043838" opacity="1.000000" stroke="none" 
	d="
M608.705139,694.828064 
	C608.710938,684.596375 608.705078,674.792725 608.864746,664.991699 
	C608.934021,660.740723 606.897522,658.707703 602.841003,658.926270 
	C599.336243,659.115112 598.059875,657.612000 597.989624,654.281006 
	C597.915955,650.789673 599.934204,650.106750 602.780396,650.102478 
	C610.597900,650.090820 618.416748,650.113525 626.232178,649.966248 
	C629.647522,649.901855 629.821350,652.076355 630.024841,654.544006 
	C630.237671,657.124207 629.362427,659.095581 626.647339,658.997498 
	C618.572876,658.705688 618.571594,661.890015 618.609497,669.182190 
	C618.691284,684.940186 618.350403,700.700256 618.201172,716.459595 
	C618.157410,721.083252 618.016113,725.714478 618.217651,730.329224 
	C618.380920,734.066345 616.357117,734.066284 613.494324,734.122314 
	C610.108948,734.188477 608.448547,733.011841 608.468384,729.646973 
	C608.517395,721.340088 608.597107,713.033447 608.667480,704.726685 
	C608.694275,701.570129 608.729309,698.413635 608.705139,694.828064 
z"/>
<path fill="#083939" opacity="1.000000" stroke="none" 
	d="
M699.761353,666.012817 
	C699.713135,684.078369 699.766541,701.648254 699.680176,719.217529 
	C699.651611,725.036316 703.513733,724.382446 707.224731,724.105713 
	C710.452881,723.864929 713.249878,723.857727 713.408508,728.345764 
	C713.547974,732.292297 712.842407,734.687317 708.028748,734.096436 
	C704.420471,733.653503 700.714111,733.833923 697.060852,733.976318 
	C692.560669,734.151672 690.719116,731.961792 690.702515,727.670654 
	C690.666565,718.379395 690.501099,709.088440 690.491272,699.797302 
	C690.475769,685.026978 690.615295,670.256104 690.515137,655.486633 
	C690.495605,652.611084 690.529968,650.737183 694.251160,650.725220 
	C697.821411,650.713806 700.106079,651.375000 699.928345,655.534729 
	C699.786316,658.857788 699.841064,662.189270 699.761353,666.012817 
z"/>
<path fill="#0A3B3A" opacity="1.000000" stroke="none" 
	d="
M737.507446,651.004639 
	C740.137390,652.850220 739.530151,655.303772 739.524719,657.563232 
	C739.475586,677.971069 739.384583,698.378784 739.332825,718.786560 
	C739.320618,723.590210 740.531555,724.512268 746.497437,724.186829 
	C749.548828,724.020386 752.648987,723.340515 753.050903,727.946289 
	C753.509949,733.206665 752.907288,734.015686 747.593750,734.013123 
	C744.266052,734.011536 740.938293,733.965820 737.610718,733.921509 
	C731.667969,733.842407 730.382080,732.836243 730.335083,727.067261 
	C730.209167,711.620850 730.290833,696.172668 730.281860,680.725220 
	C730.277405,673.087891 730.300964,665.450195 730.227783,657.813416 
	C730.159973,650.728882 730.110718,650.729370 737.507446,651.004639 
z"/>
<path fill="#000000" opacity="1.000000" stroke="none" 
	d="
M388.050415,769.995239 
	C376.808746,766.268188 372.727600,760.701111 372.942596,750.402832 
	C372.993408,747.967651 373.381805,746.891357 376.169861,746.937744 
	C386.137146,747.103760 396.109802,747.080444 406.078278,746.956909 
	C409.210815,746.918152 410.045013,748.266724 410.041412,751.160278 
	C410.028107,761.820740 401.965363,772.012451 388.050415,769.995239 
z"/>
<path fill="#F2A283" opacity="1.000000" stroke="none" 
	d="
M594.771301,579.999634 
	C574.605652,580.925232 564.381531,559.613525 572.876648,545.376770 
	C577.874939,537.000183 587.104248,532.612366 598.212402,534.009583 
	C605.788086,534.962463 614.594238,542.817139 615.823853,551.029053 
	C617.852173,564.574707 611.927307,577.184143 594.771301,579.999634 
z"/>
<path fill="#EA9E80" opacity="1.000000" stroke="none" 
	d="
M450.745544,667.451721 
	C450.963623,666.190979 451.023376,665.330322 451.334564,664.572937 
	C452.491028,661.757874 453.691132,658.644653 457.532410,659.287415 
	C461.357941,659.927612 462.300049,662.994934 462.353668,666.417847 
	C462.561615,679.700134 462.805786,692.982117 462.929718,706.265198 
	C462.968353,710.404724 462.584747,714.546753 462.550262,718.688904 
	C462.517365,722.634583 460.020172,724.657104 456.729614,724.810181 
	C453.182526,724.975098 451.433960,721.933594 451.266846,718.778564 
	C450.845032,710.816284 450.746643,702.833191 450.675323,694.857056 
	C450.594971,685.871887 450.686066,676.885193 450.745544,667.451721 
z"/>
<path fill="#E99E80" opacity="1.000000" stroke="none" 
	d="
M408.096802,660.856750 
	C415.958984,669.783020 417.364227,687.608032 411.179108,697.239929 
	C409.891571,699.244995 408.072754,700.724731 405.921509,701.678406 
	C403.326935,702.828613 401.185730,702.588745 401.197571,699.075806 
	C401.237366,687.290894 400.531799,675.496948 401.519012,663.722717 
	C401.891388,659.281555 404.027130,658.195801 408.096802,660.856750 
z"/>
<path fill="#E69D7F" opacity="1.000000" stroke="none" 
	d="
M649.540283,700.761597 
	C650.316956,691.946899 651.428955,683.578064 653.042603,675.282043 
	C653.308044,673.917358 653.136414,671.929199 655.283875,672.031677 
	C657.056885,672.116211 656.951416,673.887451 657.139893,675.111206 
	C658.401062,683.296814 659.668823,691.483154 660.757263,699.692749 
	C661.161621,702.742798 660.332336,705.530884 656.685669,705.917542 
	C653.156616,706.291687 649.895203,705.769287 649.540283,700.761597 
z"/>
<path fill="#E99E80" opacity="1.000000" stroke="none" 
	d="
M351.198669,678.005127 
	C351.248413,673.363770 351.248047,669.220581 351.274017,665.077454 
	C351.286865,663.031433 351.397736,660.792786 353.770599,660.197388 
	C356.041473,659.627502 358.288940,659.868286 360.139038,661.888245 
	C367.248169,669.650146 367.049713,690.858582 359.555237,698.309143 
	C357.978058,699.877075 355.978699,701.854248 353.499512,701.048096 
	C350.985718,700.230713 351.355042,697.451721 351.279572,695.428101 
	C351.069489,689.792847 351.177216,684.145752 351.198669,678.005127 
z"/>
<path fill="#E99E80" opacity="1.000000" stroke="none" 
	d="
M564.499573,700.488525 
	C562.296021,694.675720 563.283081,688.954407 563.076111,683.338196 
	C562.862305,677.538086 563.172852,671.718079 563.273438,665.907166 
	C563.313477,663.593872 562.981262,660.896118 565.942871,660.150452 
	C568.954895,659.392212 571.531006,660.373535 573.118164,663.271545 
	C578.114563,672.394531 578.818054,681.842896 575.291199,691.620544 
	C573.904236,695.465698 572.022400,698.898254 568.076538,700.722839 
	C566.963623,701.237427 565.896790,701.538818 564.499573,700.488525 
z"/>
<path fill="#000000" opacity="1.000000" stroke="none" 
	d="
M594.613525,551.020752 
	C596.890259,552.326965 598.916565,553.437561 599.016479,556.169434 
	C599.142334,559.615051 596.400513,563.315369 593.475647,562.905090 
	C589.950806,562.410583 587.121765,559.993225 587.208801,556.533630 
	C587.303345,552.779419 589.880981,550.336548 594.613525,551.020752 
z"/>
</svg>