<svg version="1.1" id="Layer_1" xmlns="http://www.w3.org/2000/svg" xmlns:xlink="http://www.w3.org/1999/xlink" x="0px" y="0px"
	 width="100%" viewBox="0 0 1200 1200" enable-background="new 0 0 1200 1200" xml:space="preserve">
<path fill="#000000" opacity="1.000000" stroke="none" 
	d="
M584.000000,1201.000000 
	C389.333344,1201.000000 195.166672,1201.000000 1.000000,1201.000000 
	C1.000000,801.000000 1.000000,401.000000 1.000000,1.000000 
	C401.000000,1.000000 801.000000,1.000000 1201.000000,1.000000 
	C1201.000000,401.000000 1201.000000,801.000000 1201.000000,1201.000000 
	C995.500000,1201.000000 790.000000,1201.000000 584.000000,1201.000000 
M460.237061,784.997803 
	C446.186218,783.876038 434.700745,788.422424 426.339752,800.128296 
	C415.704498,815.018250 418.824005,835.684143 431.518768,847.125671 
	C440.917847,855.596741 451.902008,858.978699 464.341278,855.928711 
	C471.823914,854.094055 478.905701,850.675781 483.655884,844.559937 
	C493.801147,831.498169 494.948090,817.253784 487.195801,802.232239 
	C496.578644,792.879089 506.006042,783.466187 515.453064,774.073120 
	C518.476746,771.066650 520.248718,767.661560 520.055786,763.202942 
	C519.827515,757.927795 520.002197,752.635254 520.002197,747.222290 
	C541.843567,747.222290 563.250427,747.222290 584.997681,747.222290 
	C584.997681,749.892517 585.350037,752.427368 584.871033,754.793823 
	C584.563232,756.314514 583.277222,758.491516 582.012085,758.834656 
	C565.708557,763.255981 554.141174,783.370056 557.799866,799.743713 
	C562.879517,822.476624 583.246521,833.684631 604.550293,827.660706 
	C617.241333,824.072083 628.165222,810.353455 629.045227,799.368469 
	C630.658020,779.234680 622.092102,766.338196 608.456665,760.469482 
	C602.796753,758.033508 601.076233,755.253174 601.984802,749.803589 
	C602.113220,749.033020 602.002563,748.222534 602.002563,747.363403 
	C623.879700,747.363403 645.404785,747.363403 666.997803,747.363403 
	C666.997803,753.389099 667.220764,759.065063 666.932922,764.715027 
	C666.663513,770.004822 669.512817,772.880920 673.756653,774.944580 
	C675.187744,775.640625 676.766052,776.028320 678.221191,776.681458 
	C691.682495,782.723267 705.044128,789.001953 718.656128,794.681213 
	C721.462952,795.852356 721.968933,797.003967 722.051880,799.534180 
	C722.180054,803.441833 722.251465,807.426819 723.067932,811.223938 
	C727.340332,831.094177 749.293274,843.657593 768.369934,837.232422 
	C787.559631,830.769104 798.333191,812.543579 792.836731,793.112793 
	C787.200989,773.189392 769.694458,763.739807 749.742004,767.679321 
	C741.393555,769.327637 735.014221,774.033997 729.346741,780.171448 
	C715.147766,773.907043 701.082764,767.736511 687.073853,761.441040 
	C686.162781,761.031555 685.154419,759.693542 685.096436,758.732849 
	C684.868469,754.957825 685.003113,751.160950 685.003113,747.325256 
	C685.850708,747.172607 686.313904,747.016418 686.777100,747.016235 
	C719.109009,747.003662 751.441040,746.975525 783.772522,747.087097 
	C785.340271,747.092529 787.251038,747.964111 788.415222,749.057373 
	C799.742920,759.693481 818.386353,762.538757 831.531494,752.884399 
	C838.172668,748.006836 844.903076,746.119141 852.850586,746.941895 
	C856.313354,747.300415 859.844055,747.002197 863.343933,747.002197 
	C876.741394,747.002197 890.138794,747.002197 903.994995,747.002197 
	C891.684326,729.076050 879.748352,711.679077 867.786377,694.299988 
	C866.428040,692.326599 865.912720,691.004700 867.709839,688.474426 
	C878.823425,672.826355 889.579407,656.923706 900.394958,641.065308 
	C901.555359,639.363892 902.334900,637.402771 903.670654,634.831604 
	C848.114990,634.831604 793.689880,634.831604 739.267639,634.831604 
	C739.267639,621.724304 739.267639,608.981506 739.267639,596.002686 
	C742.171936,596.002686 744.849548,595.745544 747.438782,596.112427 
	C748.709656,596.292603 750.466370,597.380188 750.891296,598.484863 
	C753.479492,605.212708 757.091675,610.982178 762.914124,615.535217 
	C773.457581,623.780151 785.118652,625.318481 797.284363,621.060364 
	C812.493652,615.736938 822.492371,602.549500 821.120850,583.929504 
	C819.866089,566.895325 805.485962,552.191650 788.096375,551.018921 
	C772.204407,549.947266 755.822205,559.724792 750.997192,575.932861 
	C750.291321,578.304199 748.993896,579.306458 746.436340,579.049500 
	C744.033264,578.808044 741.586914,578.997742 739.315674,578.997742 
	C739.315674,556.973389 739.315674,535.569031 739.315674,514.002136 
	C744.279846,514.002136 748.960938,513.673889 753.575745,514.086914 
	C759.095764,514.580994 763.385742,512.229797 767.362549,509.057831 
	C774.753784,503.162506 781.994141,497.078186 789.271667,491.093658 
	C803.898315,502.600342 820.792419,503.483734 836.296570,491.012665 
	C849.090088,480.721954 853.880188,461.184021 842.944458,444.121552 
	C833.451294,429.309998 816.647888,423.171234 798.551880,430.487885 
	C782.573975,436.948181 771.942444,452.818420 778.896118,477.075653 
	C772.927124,481.885223 767.037109,486.705261 761.056519,491.410156 
	C758.931519,493.081940 756.720398,495.460938 754.313721,495.787964 
	C749.308228,496.468079 744.145752,495.993500 739.084106,495.993500 
	C738.680054,471.368713 721.485596,454.881500 697.540405,454.994995 
	C693.433350,455.014435 689.326233,454.997772 685.002747,454.997772 
	C685.002747,450.811127 684.832764,447.155548 685.104370,443.533142 
	C685.187866,442.419312 686.239868,440.873779 687.252808,440.410614 
	C699.785339,434.680267 712.421692,429.177368 724.959595,423.458710 
	C727.971313,422.085052 729.948303,422.223907 732.460876,424.817017 
	C748.208496,441.069702 776.365112,437.777588 788.335999,419.119446 
	C797.410889,404.975128 795.735962,386.441101 783.920959,374.426544 
	C775.439819,365.802246 765.401978,362.245148 753.196594,363.891052 
	C740.526123,365.599701 731.885986,372.114868 725.872070,383.181580 
	C722.509766,389.368713 721.644348,395.733246 722.013123,402.488861 
	C722.153748,405.066101 721.390076,406.151611 718.631836,407.323547 
	C703.143188,413.904602 687.881470,421.019409 672.531372,427.927643 
	C668.673218,429.664001 666.885803,432.550446 666.968628,436.807922 
	C667.084351,442.755829 666.997803,448.707672 666.997803,454.773804 
	C645.146912,454.773804 623.739502,454.773804 602.002197,454.773804 
	C602.002197,452.598785 602.140747,450.621490 601.971130,448.671021 
	C601.686584,445.399139 602.634705,443.789734 606.022278,442.156250 
	C611.406433,439.560089 616.678955,436.049500 620.866394,431.807922 
	C627.865173,424.718719 629.606995,415.529510 629.080200,405.660889 
	C628.433350,393.544891 622.510803,384.183685 612.851379,378.189636 
	C592.803040,365.748779 565.847107,374.628418 558.519775,398.749756 
	C553.512878,415.232452 562.309448,435.386993 578.353882,441.393768 
	C584.114990,443.550690 585.765259,446.017670 585.019592,451.376801 
	C584.868530,452.462891 584.997742,453.588013 584.997742,454.749695 
	C563.109131,454.749695 541.703735,454.749695 520.002197,454.749695 
	C520.002197,449.872192 519.734680,445.217377 520.070190,440.606476 
	C520.486938,434.878082 518.345642,430.601288 514.292542,426.692749 
	C505.066986,417.796295 496.094757,408.637146 487.079773,399.644775 
	C495.908264,383.921631 492.332703,368.927002 484.299713,358.971252 
	C475.785370,348.418945 464.626770,343.970612 450.711487,345.884552 
	C428.820862,348.895416 415.102661,370.680511 421.374969,391.636078 
	C428.127319,414.195312 452.137543,422.611115 471.890594,413.910370 
	C474.647552,412.696014 475.980621,413.380219 477.782684,415.216064 
	C485.018250,422.587311 492.387543,429.827209 499.667755,437.154999 
	C500.562988,438.056091 501.831268,439.164520 501.882629,440.227295 
	C502.119690,445.131927 501.987213,450.054474 501.987213,454.985657 
	C488.267029,455.087372 475.294678,454.283508 463.696136,462.548279 
	C452.055420,470.843109 447.748199,482.361877 446.783447,495.997711 
	C442.334320,495.997711 438.184906,496.109039 434.047699,495.933685 
	C432.708771,495.876923 431.048859,495.432373 430.134888,494.546814 
	C421.305725,485.992523 412.604431,477.306213 403.926971,468.717407 
	C412.027893,457.389557 411.183533,437.103088 399.772583,425.190247 
	C386.914154,411.766357 365.877319,409.913116 352.383789,420.431335 
	C337.197754,432.268860 332.379944,449.194916 341.953369,467.603851 
	C346.062897,475.506134 352.719543,480.663086 360.725586,483.818451 
	C371.593292,488.101654 382.265411,486.528717 392.323090,480.866089 
	C397.875671,486.401306 403.271698,491.653534 408.518188,497.051086 
	C412.655060,501.307098 416.323547,506.067078 420.768005,509.953827 
	C422.837524,511.763702 426.207245,512.660400 429.068665,512.871399 
	C434.964996,513.306152 440.915741,513.002197 446.688141,513.002197 
	C446.688141,535.367920 446.688141,557.111511 446.688141,578.997803 
	C445.224640,578.997803 444.043427,578.837280 442.920929,579.026001 
	C438.347778,579.794800 435.865051,578.301025 433.959503,573.640137 
	C427.783783,558.534790 415.875702,551.079285 399.754181,551.108276 
	C387.474792,551.130371 377.617767,556.786560 370.664398,566.900146 
	C361.675385,579.974609 362.939423,600.065552 373.964752,611.437012 
	C381.700806,619.415894 390.926086,623.243652 402.310699,623.168091 
	C415.669373,623.079285 429.978790,613.214783 434.083710,600.445557 
	C435.187103,597.013184 436.959412,595.292664 440.767548,595.945496 
	C442.665009,596.270752 444.664276,596.002197 446.790314,596.002197 
	C446.790314,609.139160 446.790314,621.879211 446.790314,635.178467 
	C392.098633,635.178467 337.611847,635.178467 282.397736,635.178467 
	C295.550568,654.465576 308.211609,673.031494 320.640747,691.257385 
	C307.949341,709.880127 295.457855,728.209473 282.461792,747.279175 
	C307.339294,747.279175 331.103882,747.279175 354.858337,747.279175 
	C355.235992,774.714233 370.792450,785.799194 389.092651,787.854309 
	C399.572205,789.031189 408.979462,784.720154 416.546417,777.733215 
	C425.282593,769.666382 428.325012,759.012024 427.005157,747.274170 
	C452.249329,747.274170 477.001251,747.274170 501.997772,747.274170 
	C501.997772,750.518127 501.730103,753.522827 502.060913,756.460083 
	C502.549072,760.794373 501.016052,763.858337 497.829987,766.806458 
	C491.474060,772.687561 485.378326,778.867126 479.430298,785.164490 
	C476.560913,788.202515 474.240051,789.956360 469.956665,787.177002 
	C467.562256,785.623352 464.128510,785.671509 460.237061,784.997803 
z"/>
<path fill="#FEFEFE" opacity="1.000000" stroke="none" 
	d="
M460.700073,784.997803 
	C464.128510,785.671509 467.562256,785.623352 469.956665,787.177002 
	C474.240051,789.956360 476.560913,788.202515 479.430298,785.164490 
	C485.378326,778.867126 491.474060,772.687561 497.829987,766.806458 
	C501.016052,763.858337 502.549072,760.794373 502.060913,756.460083 
	C501.730103,753.522827 501.997772,750.518127 501.997772,747.274170 
	C477.001251,747.274170 452.249329,747.274170 427.005157,747.274170 
	C428.325012,759.012024 425.282593,769.666382 416.546417,777.733215 
	C408.979462,784.720154 399.572205,789.031189 389.092651,787.854309 
	C370.792450,785.799194 355.235992,774.714233 354.858337,747.279175 
	C331.103882,747.279175 307.339294,747.279175 282.461792,747.279175 
	C295.457855,728.209473 307.949341,709.880127 320.640747,691.257385 
	C308.211609,673.031494 295.550568,654.465576 282.397736,635.178467 
	C337.611847,635.178467 392.098633,635.178467 446.790314,635.178467 
	C446.790314,621.879211 446.790314,609.139160 446.790314,596.002197 
	C444.664276,596.002197 442.665009,596.270752 440.767548,595.945496 
	C436.959412,595.292664 435.187103,597.013184 434.083710,600.445557 
	C429.978790,613.214783 415.669373,623.079285 402.310699,623.168091 
	C390.926086,623.243652 381.700806,619.415894 373.964752,611.437012 
	C362.939423,600.065552 361.675385,579.974609 370.664398,566.900146 
	C377.617767,556.786560 387.474792,551.130371 399.754181,551.108276 
	C415.875702,551.079285 427.783783,558.534790 433.959503,573.640137 
	C435.865051,578.301025 438.347778,579.794800 442.920929,579.026001 
	C444.043427,578.837280 445.224640,578.997803 446.688141,578.997803 
	C446.688141,557.111511 446.688141,535.367920 446.688141,513.002197 
	C440.915741,513.002197 434.964996,513.306152 429.068665,512.871399 
	C426.207245,512.660400 422.837524,511.763702 420.768005,509.953827 
	C416.323547,506.067078 412.655060,501.307098 408.518188,497.051086 
	C403.271698,491.653534 397.875671,486.401306 392.323090,480.866089 
	C382.265411,486.528717 371.593292,488.101654 360.725586,483.818451 
	C352.719543,480.663086 346.062897,475.506134 341.953369,467.603851 
	C332.379944,449.194916 337.197754,432.268860 352.383789,420.431335 
	C365.877319,409.913116 386.914154,411.766357 399.772583,425.190247 
	C411.183533,437.103088 412.027893,457.389557 403.926971,468.717407 
	C412.604431,477.306213 421.305725,485.992523 430.134888,494.546814 
	C431.048859,495.432373 432.708771,495.876923 434.047699,495.933685 
	C438.184906,496.109039 442.334320,495.997711 446.783447,495.997711 
	C447.748199,482.361877 452.055420,470.843109 463.696136,462.548279 
	C475.294678,454.283508 488.267029,455.087372 501.987213,454.985657 
	C501.987213,450.054474 502.119690,445.131927 501.882629,440.227295 
	C501.831268,439.164520 500.562988,438.056091 499.667755,437.154999 
	C492.387543,429.827209 485.018250,422.587311 477.782684,415.216064 
	C475.980621,413.380219 474.647552,412.696014 471.890594,413.910370 
	C452.137543,422.611115 428.127319,414.195312 421.374969,391.636078 
	C415.102661,370.680511 428.820862,348.895416 450.711487,345.884552 
	C464.626770,343.970612 475.785370,348.418945 484.299713,358.971252 
	C492.332703,368.927002 495.908264,383.921631 487.079773,399.644775 
	C496.094757,408.637146 505.066986,417.796295 514.292542,426.692749 
	C518.345642,430.601288 520.486938,434.878082 520.070190,440.606476 
	C519.734680,445.217377 520.002197,449.872192 520.002197,454.749695 
	C541.703735,454.749695 563.109131,454.749695 584.997742,454.749695 
	C584.997742,453.588013 584.868530,452.462891 585.019592,451.376801 
	C585.765259,446.017670 584.114990,443.550690 578.353882,441.393768 
	C562.309448,435.386993 553.512878,415.232452 558.519775,398.749756 
	C565.847107,374.628418 592.803040,365.748779 612.851379,378.189636 
	C622.510803,384.183685 628.433350,393.544891 629.080200,405.660889 
	C629.606995,415.529510 627.865173,424.718719 620.866394,431.807922 
	C616.678955,436.049500 611.406433,439.560089 606.022278,442.156250 
	C602.634705,443.789734 601.686584,445.399139 601.971130,448.671021 
	C602.140747,450.621490 602.002197,452.598785 602.002197,454.773804 
	C623.739502,454.773804 645.146912,454.773804 666.997803,454.773804 
	C666.997803,448.707672 667.084351,442.755829 666.968628,436.807922 
	C666.885803,432.550446 668.673218,429.664001 672.531372,427.927643 
	C687.881470,421.019409 703.143188,413.904602 718.631836,407.323547 
	C721.390076,406.151611 722.153748,405.066101 722.013123,402.488861 
	C721.644348,395.733246 722.509766,389.368713 725.872070,383.181580 
	C731.885986,372.114868 740.526123,365.599701 753.196594,363.891052 
	C765.401978,362.245148 775.439819,365.802246 783.920959,374.426544 
	C795.735962,386.441101 797.410889,404.975128 788.335999,419.119446 
	C776.365112,437.777588 748.208496,441.069702 732.460876,424.817017 
	C729.948303,422.223907 727.971313,422.085052 724.959595,423.458710 
	C712.421692,429.177368 699.785339,434.680267 687.252808,440.410614 
	C686.239868,440.873779 685.187866,442.419312 685.104370,443.533142 
	C684.832764,447.155548 685.002747,450.811127 685.002747,454.997772 
	C689.326233,454.997772 693.433350,455.014435 697.540405,454.994995 
	C721.485596,454.881500 738.680054,471.368713 739.084106,495.993500 
	C744.145752,495.993500 749.308228,496.468079 754.313721,495.787964 
	C756.720398,495.460938 758.931519,493.081940 761.056519,491.410156 
	C767.037109,486.705261 772.927124,481.885223 778.896118,477.075653 
	C771.942444,452.818420 782.573975,436.948181 798.551880,430.487885 
	C816.647888,423.171234 833.451294,429.309998 842.944458,444.121552 
	C853.880188,461.184021 849.090088,480.721954 836.296570,491.012665 
	C820.792419,503.483734 803.898315,502.600342 789.271667,491.093658 
	C781.994141,497.078186 774.753784,503.162506 767.362549,509.057831 
	C763.385742,512.229797 759.095764,514.580994 753.575745,514.086914 
	C748.960938,513.673889 744.279846,514.002136 739.315674,514.002136 
	C739.315674,535.569031 739.315674,556.973389 739.315674,578.997742 
	C741.586914,578.997742 744.033264,578.808044 746.436340,579.049500 
	C748.993896,579.306458 750.291321,578.304199 750.997192,575.932861 
	C755.822205,559.724792 772.204407,549.947266 788.096375,551.018921 
	C805.485962,552.191650 819.866089,566.895325 821.120850,583.929504 
	C822.492371,602.549500 812.493652,615.736938 797.284363,621.060364 
	C785.118652,625.318481 773.457581,623.780151 762.914124,615.535217 
	C757.091675,610.982178 753.479492,605.212708 750.891296,598.484863 
	C750.466370,597.380188 748.709656,596.292603 747.438782,596.112427 
	C744.849548,595.745544 742.171936,596.002686 739.267639,596.002686 
	C739.267639,608.981506 739.267639,621.724304 739.267639,634.831604 
	C793.689880,634.831604 848.114990,634.831604 903.670654,634.831604 
	C902.334900,637.402771 901.555359,639.363892 900.394958,641.065308 
	C889.579407,656.923706 878.823425,672.826355 867.709839,688.474426 
	C865.912720,691.004700 866.428040,692.326599 867.786377,694.299988 
	C879.748352,711.679077 891.684326,729.076050 903.994995,747.002197 
	C890.138794,747.002197 876.741394,747.002197 863.343933,747.002197 
	C859.844055,747.002197 856.313354,747.300415 852.850586,746.941895 
	C844.903076,746.119141 838.172668,748.006836 831.531494,752.884399 
	C818.386353,762.538757 799.742920,759.693481 788.415222,749.057373 
	C787.251038,747.964111 785.340271,747.092529 783.772522,747.087097 
	C751.441040,746.975525 719.109009,747.003662 686.777100,747.016235 
	C686.313904,747.016418 685.850708,747.172607 685.003113,747.325256 
	C685.003113,751.160950 684.868469,754.957825 685.096436,758.732849 
	C685.154419,759.693542 686.162781,761.031555 687.073853,761.441040 
	C701.082764,767.736511 715.147766,773.907043 729.346741,780.171448 
	C735.014221,774.033997 741.393555,769.327637 749.742004,767.679321 
	C769.694458,763.739807 787.200989,773.189392 792.836731,793.112793 
	C798.333191,812.543579 787.559631,830.769104 768.369934,837.232422 
	C749.293274,843.657593 727.340332,831.094177 723.067932,811.223938 
	C722.251465,807.426819 722.180054,803.441833 722.051880,799.534180 
	C721.968933,797.003967 721.462952,795.852356 718.656128,794.681213 
	C705.044128,789.001953 691.682495,782.723267 678.221191,776.681458 
	C676.766052,776.028320 675.187744,775.640625 673.756653,774.944580 
	C669.512817,772.880920 666.663513,770.004822 666.932922,764.715027 
	C667.220764,759.065063 666.997803,753.389099 666.997803,747.363403 
	C645.404785,747.363403 623.879700,747.363403 602.002563,747.363403 
	C602.002563,748.222534 602.113220,749.033020 601.984802,749.803589 
	C601.076233,755.253174 602.796753,758.033508 608.456665,760.469482 
	C622.092102,766.338196 630.658020,779.234680 629.045227,799.368469 
	C628.165222,810.353455 617.241333,824.072083 604.550293,827.660706 
	C583.246521,833.684631 562.879517,822.476624 557.799866,799.743713 
	C554.141174,783.370056 565.708557,763.255981 582.012085,758.834656 
	C583.277222,758.491516 584.563232,756.314514 584.871033,754.793823 
	C585.350037,752.427368 584.997681,749.892517 584.997681,747.222290 
	C563.250427,747.222290 541.843567,747.222290 520.002197,747.222290 
	C520.002197,752.635254 519.827515,757.927795 520.055786,763.202942 
	C520.248718,767.661560 518.476746,771.066650 515.453064,774.073120 
	C506.006042,783.466187 496.578644,792.879089 487.195801,802.232239 
	C494.948090,817.253784 493.801147,831.498169 483.655884,844.559937 
	C478.905701,850.675781 471.823914,854.094055 464.341278,855.928711 
	C451.902008,858.978699 440.917847,855.596741 431.518768,847.125671 
	C418.824005,835.684143 415.704498,815.018250 426.339752,800.128296 
	C434.700745,788.422424 446.186218,783.876038 460.700073,784.997803 
M653.500000,473.002228 
	C617.003418,473.002228 580.506348,473.107910 544.010376,472.959900 
	C524.278625,472.879883 504.511627,471.518280 484.832306,472.377716 
	C473.632782,472.866791 465.060394,480.820831 465.036652,493.386993 
	C464.949738,539.382568 465.002197,585.378418 465.002228,631.374146 
	C465.002228,632.482788 465.002258,633.591370 465.002258,634.747314 
	C474.565918,634.747314 483.637268,634.747314 492.997772,634.747314 
	C492.997772,620.865112 492.997803,607.231567 492.997772,593.598022 
	C492.997742,574.108582 492.760529,554.615295 493.082275,535.131165 
	C493.291565,522.458496 504.797852,512.209900 517.285522,512.057007 
	C535.947632,511.828522 554.615845,512.127014 573.279236,511.959106 
	C589.865295,511.809906 606.448364,511.072388 623.032776,511.071014 
	C639.442383,511.069641 655.860352,511.453156 672.257202,512.106873 
	C678.388733,512.351257 683.112915,515.904968 687.293518,520.525146 
	C692.770142,526.577576 693.869202,533.860718 693.920105,541.315125 
	C694.120361,570.644409 694.002197,599.975830 694.002197,629.306458 
	C694.002197,631.089233 694.002197,632.872070 694.002197,634.771362 
	C703.516724,634.771362 712.587585,634.771362 721.997803,634.771362 
	C721.997803,632.920715 721.997803,631.291687 721.997803,629.662659 
	C721.997803,588.166504 722.030945,546.670288 721.953796,505.174255 
	C721.944641,500.267395 721.522156,495.339539 720.957581,490.460052 
	C719.803589,480.487183 710.425903,472.741028 700.994202,472.921753 
	C685.501282,473.218689 669.998596,473.002228 653.500000,473.002228 
M675.997803,559.500000 
	C675.997803,552.505554 676.006165,545.511047 675.995483,538.516602 
	C675.984985,531.679993 673.344971,529.008118 666.559937,529.005615 
	C642.578735,528.996765 618.597473,529.002197 594.616272,529.002197 
	C569.635864,529.002197 544.655396,528.986145 519.674988,529.013916 
	C513.700989,529.020569 510.005676,532.798340 510.003510,538.730164 
	C509.999237,550.554260 510.002228,562.378296 510.002228,574.202393 
	C510.002228,592.295105 510.002228,610.387817 510.002228,629.301147 
	C511.007843,628.406860 511.517639,628.082886 511.858643,627.631409 
	C522.209534,613.927307 533.041138,600.550537 542.721191,586.386902 
	C550.284912,575.319763 569.073120,573.035400 577.906189,583.459717 
	C583.257080,589.774597 588.280762,596.366699 593.339478,602.694214 
	C597.386719,597.469360 601.920288,592.543640 605.372375,586.950317 
	C611.021729,577.796814 623.502197,573.960022 634.293396,578.123718 
	C641.751587,581.001343 645.421387,587.889343 649.923706,593.745972 
	C658.833374,605.335693 667.439392,617.158875 675.997803,628.653015 
	C675.997803,605.828918 675.997803,583.164490 675.997803,559.500000 
M532.388306,734.014832 
	C537.427185,734.026672 536.053955,730.281372 535.956543,727.588745 
	C535.314697,709.847107 534.642944,692.105408 533.782166,674.373352 
	C533.453552,667.603882 532.729614,660.843384 531.866577,654.119812 
	C531.716614,652.951843 529.995972,651.180359 528.957397,651.149414 
	C527.833618,651.116089 526.347046,652.597351 525.593933,653.783203 
	C524.832458,654.982056 524.746338,656.621704 524.414795,658.079712 
	C521.799744,669.579407 519.287598,681.103760 516.518677,692.566223 
	C515.914673,695.066406 514.406433,697.348206 513.314575,699.730591 
	C512.826355,699.640686 512.338135,699.550842 511.849945,699.460999 
	C511.184082,697.640808 510.316498,695.867126 509.885193,693.992981 
	C507.166473,682.179626 504.613861,670.327637 501.845154,658.526306 
	C501.096710,655.336060 501.412567,650.616638 496.898163,650.714172 
	C495.648102,650.741211 493.643188,655.955994 493.459900,658.882996 
	C491.977814,682.546936 490.856934,706.233459 489.596771,729.911499 
	C489.460419,732.473572 488.879822,734.952271 492.892578,735.087036 
	C496.292511,735.201294 497.810028,733.930847 498.001068,730.600769 
	C498.342438,724.649475 498.772491,718.702454 499.238403,712.759399 
	C499.528442,709.059631 499.952484,705.370422 500.316376,701.676453 
	C500.739166,701.622009 501.161957,701.567566 501.584747,701.513123 
	C502.125610,703.285339 502.745880,705.037842 503.193573,706.833252 
	C505.119904,714.558960 506.996429,722.297058 508.889069,730.031189 
	C509.464417,732.382324 510.231934,734.984253 513.297729,733.904724 
	C514.932983,733.328796 516.863403,731.564697 517.299377,729.965759 
	C519.041565,723.576294 520.182129,717.025513 521.683960,710.566711 
	C522.452881,707.259827 523.514893,704.021057 524.444458,700.751526 
	C524.969421,700.862793 525.494324,700.974060 526.019287,701.085327 
	C526.484009,710.510376 527.072266,719.931885 527.343262,729.362488 
	C527.432007,732.452332 528.274231,734.161804 532.388306,734.014832 
M472.016602,682.450867 
	C471.662933,675.667542 471.508392,668.866577 470.909821,662.104919 
	C469.967499,651.459534 457.959717,645.761108 448.949280,651.464783 
	C442.946167,655.264893 441.998932,661.472290 441.806671,667.573059 
	C441.300598,683.631531 440.863373,699.719421 441.358521,715.765991 
	C441.514984,720.836426 443.719147,726.547424 446.765656,730.640930 
	C450.310913,735.404541 456.437897,736.370728 462.203827,734.010620 
	C468.904541,731.267944 472.020081,725.619446 472.171448,718.690979 
	C472.428162,706.940308 472.181458,695.178589 472.016602,682.450867 
M421.028259,699.431641 
	C424.023682,690.787292 424.892120,681.899719 423.482788,672.894836 
	C420.974304,656.866577 413.584381,649.787231 399.977875,649.983337 
	C393.603333,650.075317 392.464264,651.125122 392.322418,657.639954 
	C392.170868,664.599121 392.164978,671.562195 392.157379,678.523621 
	C392.137238,696.920410 392.150543,715.317200 392.150543,734.105225 
	C395.109985,734.105225 397.821869,734.105225 400.612274,734.105225 
	C400.959747,728.528198 401.059509,723.366394 401.734619,718.281067 
	C401.934692,716.773926 403.754700,715.481750 404.832428,714.091064 
	C405.996918,715.283386 407.816559,716.294556 408.205658,717.701416 
	C409.477753,722.300903 410.077393,727.083801 411.280060,731.706665 
	C411.606415,732.961060 412.989044,734.593933 414.160248,734.862915 
	C419.387024,736.063416 420.538330,734.434814 419.482941,729.118103 
	C417.554016,719.400452 411.858856,709.420837 421.028259,699.431641 
M662.081055,657.424561 
	C661.944031,656.773743 661.771790,656.127991 661.675659,655.471191 
	C661.057922,651.249451 658.680847,649.876465 654.417786,649.845337 
	C650.043091,649.813354 649.135376,652.115845 648.557190,655.571289 
	C646.478333,667.994751 644.154358,680.378174 642.159851,692.814697 
	C639.990417,706.341919 638.085022,719.911438 636.064941,733.459229 
	C644.079773,734.645752 644.435608,734.414856 645.879028,727.356262 
	C646.177551,725.896423 646.456482,724.430969 646.684143,722.958740 
	C647.483093,717.793030 651.146729,716.452332 655.652283,716.090576 
	C660.467285,715.703979 662.648560,718.527466 663.619385,722.638489 
	C664.491455,726.331421 665.083557,730.090393 665.784485,733.743774 
	C668.690186,733.743774 671.269165,733.743774 674.905212,733.743774 
	C670.607300,708.191101 666.406494,683.215515 662.081055,657.424561 
M650.029358,623.365784 
	C643.359314,614.412048 636.754639,605.408508 629.987427,596.528931 
	C627.251465,592.939026 623.486023,592.806885 620.402222,596.193115 
	C617.897034,598.943909 615.749084,602.025940 613.506042,605.008667 
	C606.077209,614.887512 598.677063,624.787964 591.127686,634.864624 
	C613.911804,634.864624 636.183777,634.864624 659.017212,634.864624 
	C655.982178,631.001953 653.218445,627.484497 650.029358,623.365784 
M361.904816,651.372253 
	C361.172943,650.985779 360.464264,650.544922 359.705627,650.221069 
	C349.446899,645.841675 343.029388,650.028503 342.998505,660.929016 
	C342.939728,681.694092 342.753693,702.458862 342.628571,723.223755 
	C342.607117,726.787781 342.625549,730.352051 342.625549,733.773682 
	C345.715332,733.773682 347.955536,733.773682 350.914398,733.773682 
	C350.914398,729.759399 351.131653,726.119629 350.864197,722.515808 
	C350.447510,716.901428 353.426483,714.625000 358.199677,712.350586 
	C362.407623,710.345581 366.996246,706.890076 368.930542,702.876831 
	C372.029510,696.447083 374.458893,689.068665 374.671112,682.016052 
	C375.014374,670.607727 373.967560,658.875549 361.904816,651.372253 
M555.092651,662.559509 
	C555.092651,686.345764 555.092651,710.131958 555.092651,734.208862 
	C557.763123,734.079407 560.000671,733.970886 562.951233,733.827820 
	C562.951233,729.547241 563.166138,725.743652 562.899353,721.974121 
	C562.527283,716.717651 565.107727,714.053467 569.874146,712.746216 
	C575.746765,711.135620 579.474915,706.996643 581.910156,701.672791 
	C587.289551,689.912354 588.250427,677.934570 584.586914,665.326355 
	C582.390137,657.766113 578.045837,652.167053 570.990662,650.217407 
	C560.802185,647.401917 553.751831,648.134827 555.016113,660.598267 
	C555.049500,660.927856 555.023376,661.263489 555.092651,662.559509 
M779.181152,716.507874 
	C780.004211,705.976135 780.004150,705.980774 789.290039,706.162964 
	C789.557739,706.168213 789.832275,705.824951 790.514404,705.370605 
	C790.514404,702.581055 790.514404,699.520874 790.514404,696.108826 
	C789.068481,696.108826 787.940063,696.041809 786.821838,696.120544 
	C781.946899,696.463745 779.373108,694.817078 779.686340,689.333191 
	C780.016235,683.558655 779.657776,677.743042 779.559509,671.946045 
	C779.388428,661.857666 779.375793,661.861755 789.464050,660.601562 
	C789.948425,660.541016 790.405090,660.201965 790.885376,660.173523 
	C794.864441,659.937866 793.845276,656.921997 793.962341,654.604736 
	C794.097473,651.931091 792.774414,650.692383 790.054260,650.737732 
	C786.925232,650.789917 783.751282,650.970703 780.671570,650.549377 
	C774.694031,649.731567 770.335449,652.578369 770.191284,658.487732 
	C769.836182,673.036255 769.770081,687.592957 769.705078,702.146912 
	C769.664551,711.233215 769.814453,720.320801 769.925293,729.407227 
	C769.968750,732.966797 771.698914,735.137451 775.415771,734.968994 
	C779.996582,734.761353 784.564636,734.277527 789.140076,733.939026 
	C792.153015,733.716064 793.641418,732.721069 793.930359,729.120056 
	C794.429321,722.900391 790.405090,723.264038 786.637268,723.315369 
	C782.327942,723.374023 778.522705,723.279419 779.181152,716.507874 
M576.455750,625.031555 
	C578.006897,623.141357 579.774841,621.380127 581.010376,619.302246 
	C581.561340,618.375732 581.542847,616.450012 580.926270,615.596497 
	C576.751587,609.816833 572.452026,604.119080 567.990112,598.557434 
	C563.009094,592.348694 560.007446,592.183960 555.194885,598.419678 
	C546.035217,610.288086 537.214844,622.418335 527.838074,634.997192 
	C541.580933,634.997192 554.658508,635.016846 567.735535,634.947632 
	C568.507263,634.943542 569.519714,634.417114 570.002625,633.804565 
	C572.096069,631.149048 574.034485,628.371338 576.455750,625.031555 
M815.554199,675.129456 
	C819.511719,688.285950 824.476929,701.225769 823.164124,715.414246 
	C822.737854,720.020935 823.058899,724.692322 822.885620,729.328430 
	C822.773010,732.340515 823.754944,733.895874 827.036682,734.080994 
	C830.542908,734.278809 830.822021,732.096008 830.870911,729.660706 
	C830.990173,723.716431 830.679749,717.744568 831.146179,711.831360 
	C831.661011,705.304810 832.172058,698.646301 833.887207,692.374023 
	C837.285645,679.945801 841.601013,667.770569 845.280640,655.414246 
	C845.742310,653.864075 845.097473,650.613892 844.198303,650.291748 
	C841.732056,649.408020 838.896362,649.591492 837.846191,653.097168 
	C837.134338,655.473572 836.163940,657.774963 835.263428,660.092041 
	C833.095459,665.670349 830.900513,671.238281 828.716492,676.810364 
	C828.159729,676.777344 827.603027,676.744263 827.046265,676.711243 
	C826.292908,675.591797 825.304932,674.563965 824.825989,673.337341 
	C822.479614,667.328735 819.687805,661.407959 818.179077,655.183289 
	C816.765930,649.353516 813.541504,649.296082 808.253967,650.582886 
	C810.618835,658.626221 812.936157,666.507874 815.554199,675.129456 
M789.484680,605.057190 
	C795.950500,604.783936 799.427429,600.131897 802.009338,595.331116 
	C806.770752,586.477783 802.779053,574.772827 793.898804,570.432861 
	C783.924683,565.558289 774.581970,569.150146 769.005249,578.352661 
	C764.872925,585.171753 765.989441,592.472534 770.391846,598.497681 
	C774.715515,604.415100 781.185608,607.198303 789.484680,605.057190 
M578.025452,804.240723 
	C580.968079,806.475769 583.602722,809.520325 586.916077,810.781067 
	C594.293762,813.588135 601.748352,812.429321 608.793640,803.692566 
	C612.086975,799.608643 614.064880,791.628235 609.062439,783.233459 
	C605.786499,777.735962 597.259644,772.978882 591.873840,774.043762 
	C577.427490,776.900085 570.051697,791.164368 578.025452,804.240723 
M739.002380,398.584900 
	C740.680481,410.771393 745.746643,416.408600 756.476440,417.850769 
	C767.992249,419.398560 781.985474,407.216888 774.920715,390.842590 
	C771.819031,383.653564 762.415100,379.235168 754.569519,380.991119 
	C745.532715,383.013733 740.934204,389.125580 739.002380,398.584900 
M743.028015,814.271484 
	C749.087769,820.660828 760.301758,823.614197 766.513123,819.708862 
	C773.098999,815.568115 778.997864,809.210449 776.024902,797.673340 
	C774.394592,791.346680 767.448975,785.062561 760.496399,784.011475 
	C753.239990,782.914368 745.494385,787.127625 741.161499,794.528992 
	C738.014709,799.904419 738.792419,808.134033 743.028015,814.271484 
M390.685455,603.126892 
	C397.980469,607.229553 405.035400,607.187195 411.870941,602.021301 
	C417.528290,597.745789 419.579285,592.345703 419.202118,585.114380 
	C418.826355,577.908997 411.459686,569.565430 401.787903,568.049683 
	C395.071014,566.997009 385.521332,573.977051 382.998260,581.468262 
	C380.010773,590.338562 383.875244,596.878418 390.685455,603.126892 
M474.972290,823.098389 
	C475.228699,816.780273 473.013397,811.742859 468.667297,806.913208 
	C462.594299,800.164612 451.395538,801.048157 446.149841,804.447876 
	C438.379150,809.484253 435.445312,819.405945 438.867615,827.374207 
	C442.518982,835.875793 449.302032,839.761658 458.813904,839.024292 
	C464.171173,838.608948 473.255035,832.291321 474.972290,823.098389 
M800.022522,477.530273 
	C807.755676,484.692474 818.696411,483.702545 826.961243,475.642426 
	C832.947083,469.804840 832.375916,456.793915 826.198059,450.741791 
	C818.413269,443.115265 807.406799,443.373322 801.286621,449.245789 
	C792.001343,458.155212 791.397034,468.298218 800.022522,477.530273 
M586.948669,391.020782 
	C584.070862,393.087830 580.435730,394.607300 578.466064,397.331085 
	C573.737427,403.870148 573.177490,411.541901 577.320801,418.385529 
	C581.635681,425.512421 588.732483,428.601013 597.166931,426.940887 
	C604.827820,425.433044 609.571777,420.502655 611.501465,412.990204 
	C613.524353,405.114960 610.589294,398.997101 604.516113,394.018341 
	C599.466492,389.878571 593.899353,388.999054 586.948669,391.020782 
M385.427979,464.043549 
	C385.901703,463.575989 386.320862,463.030945 386.857605,462.652832 
	C392.447144,458.715515 393.388062,448.449127 390.504547,441.993469 
	C388.007477,436.403046 379.115356,430.486359 373.207458,431.070648 
	C365.154663,431.867004 358.953186,435.590668 356.029846,443.872803 
	C353.077850,452.236053 355.557037,460.567749 363.039795,465.364410 
	C369.835663,469.720703 375.901917,470.860199 385.427979,464.043549 
M437.007996,380.558929 
	C437.338745,381.627319 437.844421,382.675201 437.972290,383.767334 
	C438.898773,391.681366 443.278809,396.614471 450.777649,399.018646 
	C457.991913,401.331543 464.096527,399.512177 469.284454,394.206787 
	C475.230530,388.126007 476.842804,381.003479 472.877930,373.454590 
	C470.128998,368.220795 465.911346,363.903076 459.567535,363.049255 
	C451.194672,361.922363 444.389557,364.728333 440.029510,372.194916 
	C438.682678,374.501373 438.015259,377.204559 437.007996,380.558929 
M608.881165,676.698486 
	C608.817688,684.147522 608.749878,691.596436 608.691895,699.045532 
	C608.613159,709.154968 608.565674,719.264709 608.454651,729.373779 
	C608.415100,732.970276 610.036804,734.059631 613.628662,734.164307 
	C617.184326,734.268066 618.414307,733.322876 618.237427,729.790466 
	C618.015747,725.362488 618.158508,720.914673 618.192932,716.475830 
	C618.317322,700.429810 618.578979,684.383667 618.549561,668.338135 
	C618.535156,660.505310 618.450500,660.243103 626.422668,659.124695 
	C629.415955,658.704834 630.259216,657.161072 630.030212,654.342346 
	C629.819763,651.752808 629.437866,649.869751 626.111206,649.948792 
	C618.311035,650.134094 610.505188,650.104797 602.701599,650.103271 
	C599.826416,650.102722 597.871338,650.791992 597.974243,654.281738 
	C598.070801,657.557129 599.186218,659.157288 602.766418,658.919678 
	C607.138000,658.629639 609.094421,660.942566 608.875183,665.357422 
	C608.702515,668.835083 608.860474,672.329102 608.881165,676.698486 
M698.084290,651.020142 
	C695.675415,651.020142 693.266479,651.020142 690.758240,651.020142 
	C690.616028,652.251343 690.477783,652.892212 690.477356,653.533264 
	C690.466980,669.102234 690.444580,684.671265 690.482971,700.240173 
	C690.505432,709.339050 690.626282,718.437622 690.709167,727.536377 
	C690.738647,730.776428 691.407715,733.760864 695.378113,733.889465 
	C701.148865,734.076538 706.930176,733.937500 712.619751,733.937500 
	C714.370850,724.903076 713.900940,724.174438 705.647705,724.368469 
	C701.171143,724.473755 699.576660,722.728577 699.629150,718.195312 
	C699.868469,697.536682 699.853760,676.874756 699.850037,656.214050 
	C699.849731,654.613708 699.229187,653.013489 698.084290,651.020142 
M730.210571,655.717163 
	C730.182495,670.481750 730.130310,685.246399 730.135376,700.010986 
	C730.138428,708.966919 730.164307,717.924011 730.321228,726.878113 
	C730.369690,729.644714 730.176575,733.307922 733.928162,733.585083 
	C740.121826,734.042419 746.373901,733.709290 752.514099,733.709290 
	C753.753723,724.545288 753.650879,724.333740 744.906799,724.311951 
	C741.310852,724.302979 739.238708,723.270386 739.279236,719.250305 
	C739.364197,710.820679 739.197632,702.388733 739.244080,693.958313 
	C739.314514,681.160095 739.479736,668.362488 739.601135,655.564575 
	C739.630188,652.500366 738.801270,650.434143 735.035706,650.747375 
	C732.300720,650.974792 729.359558,650.461914 730.210571,655.717163 
M375.009888,761.102173 
	C376.219269,762.446228 377.373627,763.845154 378.647644,765.124878 
	C384.135132,770.637451 392.601624,771.856201 400.221680,768.278381 
	C406.155914,765.492065 410.661865,757.532349 409.874054,750.527771 
	C409.731506,749.260498 408.004425,747.178894 406.972260,747.156494 
	C395.726654,746.912415 384.473755,747.003723 372.136139,747.003723 
	C373.137726,751.917786 373.994629,756.122070 375.009888,761.102173 
z"/>
<path fill="#000000" opacity="1.000000" stroke="none" 
	d="
M654.000000,473.002228 
	C669.998596,473.002228 685.501282,473.218689 700.994202,472.921753 
	C710.425903,472.741028 719.803589,480.487183 720.957581,490.460052 
	C721.522156,495.339539 721.944641,500.267395 721.953796,505.174255 
	C722.030945,546.670288 721.997803,588.166504 721.997803,629.662659 
	C721.997803,631.291687 721.997803,632.920715 721.997803,634.771362 
	C712.587585,634.771362 703.516724,634.771362 694.002197,634.771362 
	C694.002197,632.872070 694.002197,631.089233 694.002197,629.306458 
	C694.002197,599.975830 694.120361,570.644409 693.920105,541.315125 
	C693.869202,533.860718 692.770142,526.577576 687.293518,520.525146 
	C683.112915,515.904968 678.388733,512.351257 672.257202,512.106873 
	C655.860352,511.453156 639.442383,511.069641 623.032776,511.071014 
	C606.448364,511.072388 589.865295,511.809906 573.279236,511.959106 
	C554.615845,512.127014 535.947632,511.828522 517.285522,512.057007 
	C504.797852,512.209900 493.291565,522.458496 493.082275,535.131165 
	C492.760529,554.615295 492.997742,574.108582 492.997772,593.598022 
	C492.997803,607.231567 492.997772,620.865112 492.997772,634.747314 
	C483.637268,634.747314 474.565918,634.747314 465.002258,634.747314 
	C465.002258,633.591370 465.002228,632.482788 465.002228,631.374146 
	C465.002197,585.378418 464.949738,539.382568 465.036652,493.386993 
	C465.060394,480.820831 473.632782,472.866791 484.832306,472.377716 
	C504.511627,471.518280 524.278625,472.879883 544.010376,472.959900 
	C580.506348,473.107910 617.003418,473.002228 654.000000,473.002228 
z"/>
<path fill="#000000" opacity="1.000000" stroke="none" 
	d="
M675.997803,560.000000 
	C675.997803,583.164490 675.997803,605.828918 675.997803,628.653015 
	C667.439392,617.158875 658.833374,605.335693 649.923706,593.745972 
	C645.421387,587.889343 641.751587,581.001343 634.293396,578.123718 
	C623.502197,573.960022 611.021729,577.796814 605.372375,586.950317 
	C601.920288,592.543640 597.386719,597.469360 593.339478,602.694214 
	C588.280762,596.366699 583.257080,589.774597 577.906189,583.459717 
	C569.073120,573.035400 550.284912,575.319763 542.721191,586.386902 
	C533.041138,600.550537 522.209534,613.927307 511.858643,627.631409 
	C511.517639,628.082886 511.007843,628.406860 510.002228,629.301147 
	C510.002228,610.387817 510.002228,592.295105 510.002228,574.202393 
	C510.002228,562.378296 509.999237,550.554260 510.003510,538.730164 
	C510.005676,532.798340 513.700989,529.020569 519.674988,529.013916 
	C544.655396,528.986145 569.635864,529.002197 594.616272,529.002197 
	C618.597473,529.002197 642.578735,528.996765 666.559937,529.005615 
	C673.344971,529.008118 675.984985,531.679993 675.995483,538.516602 
	C676.006165,545.511047 675.997803,552.505554 675.997803,560.000000 
M572.018250,567.078613 
	C572.509216,567.727844 573.058655,568.341187 573.482178,569.031738 
	C578.848633,577.781372 587.116699,581.394043 596.725159,579.767090 
	C606.356140,578.136230 613.193726,572.164124 615.497681,562.041138 
	C617.419250,553.597839 615.333252,546.175598 609.436768,540.024658 
	C603.166016,533.483398 595.140076,532.604309 586.864685,534.716919 
	C573.976746,538.007080 565.678162,552.207458 572.018250,567.078613 
z"/>
<path fill="#080808" opacity="1.000000" stroke="none" 
	d="
M531.974609,734.017578 
	C528.274231,734.161804 527.432007,732.452332 527.343262,729.362488 
	C527.072266,719.931885 526.484009,710.510376 526.019287,701.085327 
	C525.494324,700.974060 524.969421,700.862793 524.444458,700.751526 
	C523.514893,704.021057 522.452881,707.259827 521.683960,710.566711 
	C520.182129,717.025513 519.041565,723.576294 517.299377,729.965759 
	C516.863403,731.564697 514.932983,733.328796 513.297729,733.904724 
	C510.231934,734.984253 509.464417,732.382324 508.889069,730.031189 
	C506.996429,722.297058 505.119904,714.558960 503.193573,706.833252 
	C502.745880,705.037842 502.125610,703.285339 501.584747,701.513123 
	C501.161957,701.567566 500.739166,701.622009 500.316376,701.676453 
	C499.952484,705.370422 499.528442,709.059631 499.238403,712.759399 
	C498.772491,718.702454 498.342438,724.649475 498.001068,730.600769 
	C497.810028,733.930847 496.292511,735.201294 492.892578,735.087036 
	C488.879822,734.952271 489.460419,732.473572 489.596771,729.911499 
	C490.856934,706.233459 491.977814,682.546936 493.459900,658.882996 
	C493.643188,655.955994 495.648102,650.741211 496.898163,650.714172 
	C501.412567,650.616638 501.096710,655.336060 501.845154,658.526306 
	C504.613861,670.327637 507.166473,682.179626 509.885193,693.992981 
	C510.316498,695.867126 511.184082,697.640808 511.849945,699.460999 
	C512.338135,699.550842 512.826355,699.640686 513.314575,699.730591 
	C514.406433,697.348206 515.914673,695.066406 516.518677,692.566223 
	C519.287598,681.103760 521.799744,669.579407 524.414795,658.079712 
	C524.746338,656.621704 524.832458,654.982056 525.593933,653.783203 
	C526.347046,652.597351 527.833618,651.116089 528.957397,651.149414 
	C529.995972,651.180359 531.716614,652.951843 531.866577,654.119812 
	C532.729614,660.843384 533.453552,667.603882 533.782166,674.373352 
	C534.642944,692.105408 535.314697,709.847107 535.956543,727.588745 
	C536.053955,730.281372 537.427185,734.026672 531.974609,734.017578 
z"/>
<path fill="#090909" opacity="1.000000" stroke="none" 
	d="
M472.081482,682.936157 
	C472.181458,695.178589 472.428162,706.940308 472.171448,718.690979 
	C472.020081,725.619446 468.904541,731.267944 462.203827,734.010620 
	C456.437897,736.370728 450.310913,735.404541 446.765656,730.640930 
	C443.719147,726.547424 441.514984,720.836426 441.358521,715.765991 
	C440.863373,699.719421 441.300598,683.631531 441.806671,667.573059 
	C441.998932,661.472290 442.946167,655.264893 448.949280,651.464783 
	C457.959717,645.761108 469.967499,651.459534 470.909821,662.104919 
	C471.508392,668.866577 471.662933,675.667542 472.081482,682.936157 
M462.944702,686.544739 
	C462.903320,684.717468 462.878571,682.889648 462.817383,681.063049 
	C462.635040,675.617126 462.855774,670.107727 462.036255,664.758423 
	C461.720581,662.697876 459.326965,660.261169 457.295532,659.437256 
	C456.202820,658.994080 453.190308,661.231812 452.270660,662.925842 
	C451.075104,665.127991 450.704651,667.987061 450.670013,670.572693 
	C450.552368,679.357971 450.713074,688.147522 450.816803,696.934875 
	C450.902924,704.227783 450.640778,711.565674 451.432434,718.784973 
	C451.677185,721.016968 454.670166,724.340271 456.768372,724.642761 
	C459.749084,725.072510 462.511505,722.786255 462.525085,718.780090 
	C462.560425,708.364136 462.732391,697.948608 462.944702,686.544739 
z"/>
<path fill="#0A0A0A" opacity="1.000000" stroke="none" 
	d="
M420.907959,699.797974 
	C411.858856,709.420837 417.554016,719.400452 419.482941,729.118103 
	C420.538330,734.434814 419.387024,736.063416 414.160248,734.862915 
	C412.989044,734.593933 411.606415,732.961060 411.280060,731.706665 
	C410.077393,727.083801 409.477753,722.300903 408.205658,717.701416 
	C407.816559,716.294556 405.996918,715.283386 404.832397,714.091064 
	C403.754700,715.481750 401.934692,716.773926 401.734619,718.281067 
	C401.059509,723.366394 400.959747,728.528198 400.612274,734.105225 
	C397.821869,734.105225 395.109985,734.105225 392.150543,734.105225 
	C392.150543,715.317200 392.137238,696.920410 392.157379,678.523621 
	C392.164978,671.562195 392.170868,664.599121 392.322418,657.639954 
	C392.464264,651.125122 393.603333,650.075317 399.977875,649.983337 
	C413.584381,649.787231 420.974304,656.866577 423.482788,672.894836 
	C424.892120,681.899719 424.023682,690.787292 420.907959,699.797974 
M411.940399,666.711487 
	C411.462982,665.656433 411.255676,664.276062 410.454590,663.610840 
	C408.509766,661.995911 406.288818,660.713562 404.179138,659.297180 
	C403.206604,661.393005 401.461884,663.463501 401.391937,665.588989 
	C401.043915,676.168457 401.066681,686.762939 401.148376,697.350708 
	C401.160828,698.967041 401.790955,701.562683 402.800354,701.943787 
	C404.127411,702.444763 406.348907,701.552124 407.753632,700.612610 
	C409.339874,699.551697 410.941345,697.987000 411.679718,696.272461 
	C415.768127,686.779419 416.324738,677.115662 411.940399,666.711487 
z"/>
<path fill="#080808" opacity="1.000000" stroke="none" 
	d="
M662.143311,657.832275 
	C666.406494,683.215515 670.607300,708.191101 674.905212,733.743774 
	C671.269165,733.743774 668.690186,733.743774 665.784485,733.743774 
	C665.083557,730.090393 664.491455,726.331421 663.619385,722.638489 
	C662.648560,718.527466 660.467285,715.703979 655.652283,716.090576 
	C651.146729,716.452332 647.483093,717.793030 646.684143,722.958740 
	C646.456482,724.430969 646.177551,725.896423 645.879028,727.356262 
	C644.435608,734.414856 644.079773,734.645752 636.064941,733.459229 
	C638.085022,719.911438 639.990417,706.341919 642.159851,692.814697 
	C644.154358,680.378174 646.478333,667.994751 648.557190,655.571289 
	C649.135376,652.115845 650.043091,649.813354 654.417786,649.845337 
	C658.680847,649.876465 661.057922,651.249451 661.675659,655.471191 
	C661.771790,656.127991 661.944031,656.773743 662.143311,657.832275 
M649.738647,697.101013 
	C649.746521,697.599976 649.787842,698.100952 649.757080,698.597534 
	C649.402222,704.327393 650.805725,706.112549 655.599060,706.007751 
	C659.808289,705.915710 661.374695,703.812927 660.663940,698.310913 
	C659.663696,690.568542 658.381226,682.861755 657.142822,675.152039 
	C656.952515,673.967163 656.351685,672.848267 655.940674,671.698853 
	C655.470154,671.695618 654.999634,671.692322 654.529114,671.689026 
	C650.979797,679.425293 651.508484,688.090149 649.738647,697.101013 
z"/>
<path fill="#000000" opacity="1.000000" stroke="none" 
	d="
M650.242065,623.666382 
	C653.218445,627.484497 655.982178,631.001953 659.017212,634.864624 
	C636.183777,634.864624 613.911804,634.864624 591.127686,634.864624 
	C598.677063,624.787964 606.077209,614.887512 613.506042,605.008667 
	C615.749084,602.025940 617.897034,598.943909 620.402222,596.193115 
	C623.486023,592.806885 627.251465,592.939026 629.987427,596.528931 
	C636.754639,605.408508 643.359314,614.412048 650.242065,623.666382 
z"/>
<path fill="#060606" opacity="1.000000" stroke="none" 
	d="
M362.217590,651.588440 
	C373.967560,658.875549 375.014374,670.607727 374.671112,682.016052 
	C374.458893,689.068665 372.029510,696.447083 368.930542,702.876831 
	C366.996246,706.890076 362.407623,710.345581 358.199677,712.350586 
	C353.426483,714.625000 350.447510,716.901428 350.864197,722.515808 
	C351.131653,726.119629 350.914398,729.759399 350.914398,733.773682 
	C347.955536,733.773682 345.715332,733.773682 342.625549,733.773682 
	C342.625549,730.352051 342.607117,726.787781 342.628571,723.223755 
	C342.753693,702.458862 342.939728,681.694092 342.998505,660.929016 
	C343.029388,650.028503 349.446899,645.841675 359.705627,650.221069 
	C360.464264,650.544922 361.172943,650.985779 362.217590,651.588440 
M353.040619,660.315125 
	C352.451233,661.631470 351.368835,662.940979 351.350525,664.265320 
	C351.204102,674.859497 351.180969,685.457581 351.333130,696.051453 
	C351.356995,697.711548 352.167084,700.504211 353.125854,700.746521 
	C354.672577,701.137390 356.730988,700.018127 358.404541,699.194092 
	C359.362274,698.722473 360.158844,697.676575 360.734436,696.713745 
	C367.040009,686.166382 366.841583,675.375610 361.808136,664.436401 
	C360.229462,661.005554 357.664612,659.379028 353.040619,660.315125 
z"/>
<path fill="#060606" opacity="1.000000" stroke="none" 
	d="
M555.058838,662.077881 
	C555.023376,661.263489 555.049500,660.927856 555.016113,660.598267 
	C553.751831,648.134827 560.802185,647.401917 570.990662,650.217407 
	C578.045837,652.167053 582.390137,657.766113 584.586914,665.326355 
	C588.250427,677.934570 587.289551,689.912354 581.910156,701.672791 
	C579.474915,706.996643 575.746765,711.135620 569.874146,712.746216 
	C565.107727,714.053467 562.527283,716.717651 562.899353,721.974121 
	C563.166138,725.743652 562.951233,729.547241 562.951233,733.827820 
	C560.000671,733.970886 557.763123,734.079407 555.092651,734.208862 
	C555.092651,710.131958 555.092651,686.345764 555.058838,662.077881 
M563.051025,670.604797 
	C563.102295,678.874268 563.022522,687.148254 563.302002,695.409973 
	C563.367615,697.349609 564.647217,699.248169 565.368347,701.165649 
	C567.414612,700.268250 569.904663,699.839844 571.432434,698.394409 
	C579.110596,691.129700 579.429810,669.100952 571.883118,661.836853 
	C570.509583,660.514771 567.581116,660.015320 565.625427,660.407471 
	C564.562622,660.620605 563.811157,663.450256 563.340210,665.212219 
	C562.968018,666.604614 563.238037,668.168579 563.051025,670.604797 
z"/>
<path fill="#070707" opacity="1.000000" stroke="none" 
	d="
M779.138184,716.935913 
	C778.522705,723.279419 782.327942,723.374023 786.637268,723.315369 
	C790.405090,723.264038 794.429321,722.900391 793.930359,729.120056 
	C793.641418,732.721069 792.153015,733.716064 789.140076,733.939026 
	C784.564636,734.277527 779.996582,734.761353 775.415771,734.968994 
	C771.698914,735.137451 769.968750,732.966797 769.925293,729.407227 
	C769.814453,720.320801 769.664551,711.233215 769.705078,702.146912 
	C769.770081,687.592957 769.836182,673.036255 770.191284,658.487732 
	C770.335449,652.578369 774.694031,649.731567 780.671570,650.549377 
	C783.751282,650.970703 786.925232,650.789917 790.054260,650.737732 
	C792.774414,650.692383 794.097473,651.931091 793.962341,654.604736 
	C793.845276,656.921997 794.864441,659.937866 790.885376,660.173523 
	C790.405090,660.201965 789.948425,660.541016 789.464050,660.601562 
	C779.375793,661.861755 779.388428,661.857666 779.559509,671.946045 
	C779.657776,677.743042 780.016235,683.558655 779.686340,689.333191 
	C779.373108,694.817078 781.946899,696.463745 786.821838,696.120544 
	C787.940063,696.041809 789.068481,696.108826 790.514404,696.108826 
	C790.514404,699.520874 790.514404,702.581055 790.514404,705.370605 
	C789.832275,705.824951 789.557739,706.168213 789.290039,706.162964 
	C780.004150,705.980774 780.004211,705.976135 779.138184,716.935913 
z"/>
<path fill="#000000" opacity="1.000000" stroke="none" 
	d="
M576.242493,625.334778 
	C574.034485,628.371338 572.096069,631.149048 570.002625,633.804565 
	C569.519714,634.417114 568.507263,634.943542 567.735535,634.947632 
	C554.658508,635.016846 541.580933,634.997192 527.838074,634.997192 
	C537.214844,622.418335 546.035217,610.288086 555.194885,598.419678 
	C560.007446,592.183960 563.009094,592.348694 567.990112,598.557434 
	C572.452026,604.119080 576.751587,609.816833 580.926270,615.596497 
	C581.542847,616.450012 581.561340,618.375732 581.010376,619.302246 
	C579.774841,621.380127 578.006897,623.141357 576.242493,625.334778 
z"/>
<path fill="#0A0A0A" opacity="1.000000" stroke="none" 
	d="
M815.403809,674.759521 
	C812.936157,666.507874 810.618835,658.626221 808.253967,650.582886 
	C813.541504,649.296082 816.765930,649.353516 818.179077,655.183289 
	C819.687805,661.407959 822.479614,667.328735 824.825989,673.337341 
	C825.304932,674.563965 826.292908,675.591797 827.046265,676.711243 
	C827.603027,676.744263 828.159729,676.777344 828.716492,676.810364 
	C830.900513,671.238281 833.095459,665.670349 835.263428,660.092041 
	C836.163940,657.774963 837.134338,655.473572 837.846191,653.097168 
	C838.896362,649.591492 841.732056,649.408020 844.198303,650.291748 
	C845.097473,650.613892 845.742310,653.864075 845.280640,655.414246 
	C841.601013,667.770569 837.285645,679.945801 833.887207,692.374023 
	C832.172058,698.646301 831.661011,705.304810 831.146179,711.831360 
	C830.679749,717.744568 830.990173,723.716431 830.870911,729.660706 
	C830.822021,732.096008 830.542908,734.278809 827.036682,734.080994 
	C823.754944,733.895874 822.773010,732.340515 822.885620,729.328430 
	C823.058899,724.692322 822.737854,720.020935 823.164124,715.414246 
	C824.476929,701.225769 819.511719,688.285950 815.403809,674.759521 
z"/>
<path fill="#000000" opacity="1.000000" stroke="none" 
	d="
M789.175903,605.356445 
	C781.185608,607.198303 774.715515,604.415100 770.391846,598.497681 
	C765.989441,592.472534 764.872925,585.171753 769.005249,578.352661 
	C774.581970,569.150146 783.924683,565.558289 793.898804,570.432861 
	C802.779053,574.772827 806.770752,586.477783 802.009338,595.331116 
	C799.427429,600.131897 795.950500,604.783936 789.175903,605.356445 
z"/>
<path fill="#000000" opacity="1.000000" stroke="none" 
	d="
M577.983704,803.853882 
	C570.051697,791.164368 577.427490,776.900085 591.873840,774.043762 
	C597.259644,772.978882 605.786499,777.735962 609.062439,783.233459 
	C614.064880,791.628235 612.086975,799.608643 608.793640,803.692566 
	C601.748352,812.429321 594.293762,813.588135 586.916077,810.781067 
	C583.602722,809.520325 580.968079,806.475769 577.983704,803.853882 
z"/>
<path fill="#000000" opacity="1.000000" stroke="none" 
	d="
M739.003296,398.160339 
	C740.934204,389.125580 745.532715,383.013733 754.569519,380.991119 
	C762.415100,379.235168 771.819031,383.653564 774.920715,390.842590 
	C781.985474,407.216888 767.992249,419.398560 756.476440,417.850769 
	C745.746643,416.408600 740.680481,410.771393 739.003296,398.160339 
z"/>
<path fill="#000000" opacity="1.000000" stroke="none" 
	d="
M742.991089,813.885864 
	C738.792419,808.134033 738.014709,799.904419 741.161499,794.528992 
	C745.494385,787.127625 753.239990,782.914368 760.496399,784.011475 
	C767.448975,785.062561 774.394592,791.346680 776.024902,797.673340 
	C778.997864,809.210449 773.098999,815.568115 766.513123,819.708862 
	C760.301758,823.614197 749.087769,820.660828 742.991089,813.885864 
z"/>
<path fill="#000000" opacity="1.000000" stroke="none" 
	d="
M390.392975,602.884399 
	C383.875244,596.878418 380.010773,590.338562 382.998260,581.468262 
	C385.521332,573.977051 395.071014,566.997009 401.787903,568.049683 
	C411.459686,569.565430 418.826355,577.908997 419.202118,585.114380 
	C419.579285,592.345703 417.528290,597.745789 411.870941,602.021301 
	C405.035400,607.187195 397.980469,607.229553 390.392975,602.884399 
z"/>
<path fill="#000000" opacity="1.000000" stroke="none" 
	d="
M474.804749,823.491577 
	C473.255035,832.291321 464.171173,838.608948 458.813904,839.024292 
	C449.302032,839.761658 442.518982,835.875793 438.867615,827.374207 
	C435.445312,819.405945 438.379150,809.484253 446.149841,804.447876 
	C451.395538,801.048157 462.594299,800.164612 468.667297,806.913208 
	C473.013397,811.742859 475.228699,816.780273 474.804749,823.491577 
z"/>
<path fill="#000000" opacity="1.000000" stroke="none" 
	d="
M799.758301,477.262024 
	C791.397034,468.298218 792.001343,458.155212 801.286621,449.245789 
	C807.406799,443.373322 818.413269,443.115265 826.198059,450.741791 
	C832.375916,456.793915 832.947083,469.804840 826.961243,475.642426 
	C818.696411,483.702545 807.755676,484.692474 799.758301,477.262024 
z"/>
<path fill="#000000" opacity="1.000000" stroke="none" 
	d="
M587.362976,391.007935 
	C593.899353,388.999054 599.466492,389.878571 604.516113,394.018341 
	C610.589294,398.997101 613.524353,405.114960 611.501465,412.990204 
	C609.571777,420.502655 604.827820,425.433044 597.166931,426.940887 
	C588.732483,428.601013 581.635681,425.512421 577.320801,418.385529 
	C573.177490,411.541901 573.737427,403.870148 578.466064,397.331085 
	C580.435730,394.607300 584.070862,393.087830 587.362976,391.007935 
z"/>
<path fill="#000000" opacity="1.000000" stroke="none" 
	d="
M385.178284,464.323334 
	C375.901917,470.860199 369.835663,469.720703 363.039795,465.364410 
	C355.557037,460.567749 353.077850,452.236053 356.029846,443.872803 
	C358.953186,435.590668 365.154663,431.867004 373.207458,431.070648 
	C379.115356,430.486359 388.007477,436.403046 390.504547,441.993469 
	C393.388062,448.449127 392.447144,458.715515 386.857605,462.652832 
	C386.320862,463.030945 385.901703,463.575989 385.178284,464.323334 
z"/>
<path fill="#000000" opacity="1.000000" stroke="none" 
	d="
M437.022339,380.142517 
	C438.015259,377.204559 438.682678,374.501373 440.029510,372.194916 
	C444.389557,364.728333 451.194672,361.922363 459.567535,363.049255 
	C465.911346,363.903076 470.128998,368.220795 472.877930,373.454590 
	C476.842804,381.003479 475.230530,388.126007 469.284454,394.206787 
	C464.096527,399.512177 457.991913,401.331543 450.777649,399.018646 
	C443.278809,396.614471 438.898773,391.681366 437.972290,383.767334 
	C437.844421,382.675201 437.338745,381.627319 437.022339,380.142517 
z"/>
<path fill="#040404" opacity="1.000000" stroke="none" 
	d="
M608.876343,676.257202 
	C608.860474,672.329102 608.702515,668.835083 608.875183,665.357422 
	C609.094421,660.942566 607.138000,658.629639 602.766418,658.919678 
	C599.186218,659.157288 598.070801,657.557129 597.974243,654.281738 
	C597.871338,650.791992 599.826416,650.102722 602.701599,650.103271 
	C610.505188,650.104797 618.311035,650.134094 626.111206,649.948792 
	C629.437866,649.869751 629.819763,651.752808 630.030212,654.342346 
	C630.259216,657.161072 629.415955,658.704834 626.422668,659.124695 
	C618.450500,660.243103 618.535156,660.505310 618.549561,668.338135 
	C618.578979,684.383667 618.317322,700.429810 618.192932,716.475830 
	C618.158508,720.914673 618.015747,725.362488 618.237427,729.790466 
	C618.414307,733.322876 617.184326,734.268066 613.628662,734.164307 
	C610.036804,734.059631 608.415100,732.970276 608.454651,729.373779 
	C608.565674,719.264709 608.613159,709.154968 608.691895,699.045532 
	C608.749878,691.596436 608.817688,684.147522 608.876343,676.257202 
z"/>
<path fill="#080808" opacity="1.000000" stroke="none" 
	d="
M698.490601,651.216675 
	C699.229187,653.013489 699.849731,654.613708 699.850037,656.214050 
	C699.853760,676.874756 699.868469,697.536682 699.629150,718.195312 
	C699.576660,722.728577 701.171143,724.473755 705.647705,724.368469 
	C713.900940,724.174438 714.370850,724.903076 712.619751,733.937500 
	C706.930176,733.937500 701.148865,734.076538 695.378113,733.889465 
	C691.407715,733.760864 690.738647,730.776428 690.709167,727.536377 
	C690.626282,718.437622 690.505432,709.339050 690.482971,700.240173 
	C690.444580,684.671265 690.466980,669.102234 690.477356,653.533264 
	C690.477783,652.892212 690.616028,652.251343 690.758240,651.020142 
	C693.266479,651.020142 695.675415,651.020142 698.490601,651.216675 
z"/>
<path fill="#0B0B0B" opacity="1.000000" stroke="none" 
	d="
M730.180420,655.243530 
	C729.359558,650.461914 732.300720,650.974792 735.035706,650.747375 
	C738.801270,650.434143 739.630188,652.500366 739.601135,655.564575 
	C739.479736,668.362488 739.314514,681.160095 739.244080,693.958313 
	C739.197632,702.388733 739.364197,710.820679 739.279236,719.250305 
	C739.238708,723.270386 741.310852,724.302979 744.906799,724.311951 
	C753.650879,724.333740 753.753723,724.545288 752.514099,733.709290 
	C746.373901,733.709290 740.121826,734.042419 733.928162,733.585083 
	C730.176575,733.307922 730.369690,729.644714 730.321228,726.878113 
	C730.164307,717.924011 730.138428,708.966919 730.135376,700.010986 
	C730.130310,685.246399 730.182495,670.481750 730.180420,655.243530 
z"/>
<path fill="#000000" opacity="1.000000" stroke="none" 
	d="
M374.930725,760.714233 
	C373.994629,756.122070 373.137726,751.917786 372.136139,747.003723 
	C384.473755,747.003723 395.726654,746.912415 406.972260,747.156494 
	C408.004425,747.178894 409.731506,749.260498 409.874054,750.527771 
	C410.661865,757.532349 406.155914,765.492065 400.221680,768.278381 
	C392.601624,771.856201 384.135132,770.637451 378.647644,765.124878 
	C377.373627,763.845154 376.219269,762.446228 374.930725,760.714233 
z"/>
<path fill="#FFFFFF" opacity="1.000000" stroke="none" 
	d="
M572.007202,566.677368 
	C565.678162,552.207458 573.976746,538.007080 586.864685,534.716919 
	C595.140076,532.604309 603.166016,533.483398 609.436768,540.024658 
	C615.333252,546.175598 617.419250,553.597839 615.497681,562.041138 
	C613.193726,572.164124 606.356140,578.136230 596.725159,579.767090 
	C587.116699,581.394043 578.848633,577.781372 573.482178,569.031738 
	C573.058655,568.341187 572.509216,567.727844 572.007202,566.677368 
M588.038452,553.631287 
	C586.224487,556.510498 587.083374,559.107361 589.526306,560.838867 
	C591.012207,561.892029 593.719299,562.894409 594.959656,562.223083 
	C596.744324,561.257263 598.592224,558.813965 598.735962,556.876709 
	C598.869080,555.082764 597.119446,551.933105 595.619385,551.528259 
	C593.536255,550.966064 590.911865,552.409546 588.038452,553.631287 
z"/>
<path fill="#F6F6F6" opacity="1.000000" stroke="none" 
	d="
M462.897278,687.038818 
	C462.732391,697.948608 462.560425,708.364136 462.525085,718.780090 
	C462.511505,722.786255 459.749084,725.072510 456.768372,724.642761 
	C454.670166,724.340271 451.677185,721.016968 451.432434,718.784973 
	C450.640778,711.565674 450.902924,704.227783 450.816803,696.934875 
	C450.713074,688.147522 450.552368,679.357971 450.670013,670.572693 
	C450.704651,667.987061 451.075104,665.127991 452.270660,662.925842 
	C453.190308,661.231812 456.202820,658.994080 457.295532,659.437256 
	C459.326965,660.261169 461.720581,662.697876 462.036255,664.758423 
	C462.855774,670.107727 462.635040,675.617126 462.817383,681.063049 
	C462.878571,682.889648 462.903320,684.717468 462.897278,687.038818 
z"/>
<path fill="#F5F5F5" opacity="1.000000" stroke="none" 
	d="
M412.109436,667.058960 
	C416.324738,677.115662 415.768127,686.779419 411.679718,696.272461 
	C410.941345,697.987000 409.339874,699.551697 407.753632,700.612610 
	C406.348907,701.552124 404.127411,702.444763 402.800354,701.943787 
	C401.790955,701.562683 401.160828,698.967041 401.148376,697.350708 
	C401.066681,686.762939 401.043915,676.168457 401.391937,665.588989 
	C401.461884,663.463501 403.206604,661.393005 404.179138,659.297180 
	C406.288818,660.713562 408.509766,661.995911 410.454590,663.610840 
	C411.255676,664.276062 411.462982,665.656433 412.109436,667.058960 
z"/>
<path fill="#F2F2F2" opacity="1.000000" stroke="none" 
	d="
M649.799194,696.680115 
	C651.508484,688.090149 650.979797,679.425293 654.529114,671.689026 
	C654.999634,671.692322 655.470154,671.695618 655.940674,671.698853 
	C656.351685,672.848267 656.952515,673.967163 657.142822,675.152039 
	C658.381226,682.861755 659.663696,690.568542 660.663940,698.310913 
	C661.374695,703.812927 659.808289,705.915710 655.599060,706.007751 
	C650.805725,706.112549 649.402222,704.327393 649.757080,698.597534 
	C649.787842,698.100952 649.746521,697.599976 649.799194,696.680115 
z"/>
<path fill="#F5F5F5" opacity="1.000000" stroke="none" 
	d="
M353.435913,660.190308 
	C357.664612,659.379028 360.229462,661.005554 361.808136,664.436401 
	C366.841583,675.375610 367.040009,686.166382 360.734436,696.713745 
	C360.158844,697.676575 359.362274,698.722473 358.404541,699.194092 
	C356.730988,700.018127 354.672577,701.137390 353.125854,700.746521 
	C352.167084,700.504211 351.356995,697.711548 351.333130,696.051453 
	C351.180969,685.457581 351.204102,674.859497 351.350525,664.265320 
	C351.368835,662.940979 352.451233,661.631470 353.435913,660.190308 
z"/>
<path fill="#F5F5F5" opacity="1.000000" stroke="none" 
	d="
M563.136963,670.130615 
	C563.238037,668.168579 562.968018,666.604614 563.340210,665.212219 
	C563.811157,663.450256 564.562622,660.620605 565.625427,660.407471 
	C567.581116,660.015320 570.509583,660.514771 571.883118,661.836853 
	C579.429810,669.100952 579.110596,691.129700 571.432434,698.394409 
	C569.904663,699.839844 567.414612,700.268250 565.368408,701.165649 
	C564.647217,699.248169 563.367615,697.349609 563.302002,695.409973 
	C563.022522,687.148254 563.102295,678.874268 563.136963,670.130615 
z"/>
<path fill="#000000" opacity="1.000000" stroke="none" 
	d="
M588.278809,553.312866 
	C590.911865,552.409546 593.536255,550.966064 595.619385,551.528259 
	C597.119446,551.933105 598.869080,555.082764 598.735962,556.876709 
	C598.592224,558.813965 596.744324,561.257263 594.959656,562.223083 
	C593.719299,562.894409 591.012207,561.892029 589.526306,560.838867 
	C587.083374,559.107361 586.224487,556.510498 588.278809,553.312866 
z"/>
</svg>